<svg xmlns="http://www.w3.org/2000/svg" viewBox="0 0 1200 900"><defs><style>.cls-1{fill:#8fd3d8;}.cls-2{fill:#71bfc9;}.cls-12,.cls-3{fill:#e3e8d9;}.cls-4{fill:#88bbbc;}.cls-5{fill:#87a8d8;}.cls-6{fill:#c6b3f4;}.cls-7{fill:#c1a6f4;}.cls-8{fill:#c9d1cf;}.cls-9{fill:#edb4e5;}.cls-10{fill:#b6a0ea;}.cls-11{fill:#ede8f9;}.cls-12{stroke:#6724d1;}.cls-12,.cls-13,.cls-14,.cls-20,.cls-21,.cls-32,.cls-33{stroke-miterlimit:10;}.cls-12,.cls-13,.cls-14,.cls-20{stroke-width:0.7px;}.cls-13,.cls-23{fill:#6990d6;}.cls-13,.cls-14,.cls-20,.cls-21{stroke:#c3a7ea;}.cls-14,.cls-17,.cls-21{fill:#8180c4;}.cls-15{fill:#7c7cd6;}.cls-16{fill:#dee5c3;}.cls-18{fill:#41d5d8;}.cls-19,.cls-20{fill:#cbb8e0;}.cls-21{stroke-width:0.87px;}.cls-22{fill:#7051bc;}.cls-24{fill:#4a9acc;}.cls-25{fill:#7878ea;}.cls-26{fill:#7459c6;}.cls-27{fill:#ddb357;}.cls-28{fill:#2d3a37;}.cls-29{fill:#3e25ba;}.cls-30{fill:#db588d;}.cls-31{fill:#2525ba;}.cls-32,.cls-33{fill:none;}.cls-32{stroke:#ddb357;}.cls-33{stroke:#db588d;}</style></defs><title>Blub</title><g id="Environment"><rect class="cls-1" x="-9.1" y="-96.52" width="941.49" height="941.49" transform="translate(-22.39 29.45) rotate(-3.57)"/><rect class="cls-2" x="-51.87" y="16.84" width="285.35" height="285.35" transform="translate(209.7 299.35) rotate(169.28)"/><rect class="cls-2" x="474.95" y="-37.38" width="285.35" height="285.35"/><rect class="cls-1" x="403.33" y="42.9" width="285.35" height="285.35" transform="translate(44.06 -98.35) rotate(10.72)"/><rect class="cls-3" x="313.49" y="73.52" width="136.25" height="136.25" transform="translate(11.61 311.33) rotate(-45)"/><rect class="cls-2" x="40.56" y="257.48" width="54.08" height="54.08" transform="translate(-181.39 131.14) rotate(-45)"/><rect class="cls-1" x="752.62" y="-37.38" width="285.35" height="285.35" transform="translate(1790.58 210.59) rotate(180)"/><rect class="cls-4" x="823.16" y="-57.57" width="398.43" height="398.43" transform="translate(2033.96 346.63) rotate(-176.43)"/><rect class="cls-2" x="685.73" y="79.06" width="285.35" height="285.35" transform="translate(1683.59 285.46) rotate(169.28)"/><rect class="cls-5" x="124.86" y="178.37" width="136.25" height="136.25" transform="translate(22.13 508.81) rotate(-108.87)"/><rect class="cls-3" x="804.57" y="91.39" width="136.25" height="136.25" transform="translate(1646.93 592.63) rotate(-161.13)"/><rect class="cls-3" x="77.6" y="253.74" width="136.25" height="136.25" transform="translate(21.18 652.5) rotate(-135)"/><rect class="cls-2" x="283.63" y="343.16" width="54.08" height="54.08" transform="translate(268.58 851.65) rotate(-135)"/><rect class="cls-1" x="498.14" y="342.75" width="285.35" height="285.35"/><rect class="cls-2" x="351.1" y="322.79" width="285.35" height="285.35" transform="translate(-77.99 100) rotate(-10.72)"/><rect class="cls-5" x="-0.63" y="387.2" width="136.25" height="136.25" transform="translate(476.54 244.23) rotate(71.13)"/><rect class="cls-3" x="595.29" y="363.08" width="136.25" height="136.25" transform="translate(499.22 -342.81) rotate(45)"/><rect class="cls-3" x="69.57" y="-50.78" width="136.25" height="136.25" transform="translate(52.6 -92.28) rotate(45)"/><rect class="cls-2" x="1018.53" y="85.66" width="54.08" height="54.08" transform="translate(385.93 -706.32) rotate(45)"/><rect class="cls-1" x="775.81" y="342.75" width="285.35" height="285.35" transform="translate(1836.97 970.84) rotate(-180)"/><rect class="cls-1" x="846.36" y="249.85" width="398.43" height="398.43" transform="translate(2117.06 832.22) rotate(176.43)"/><rect class="cls-4" x="708.92" y="226.31" width="285.35" height="285.35" transform="translate(1619.66 889.98) rotate(-169.28)"/><rect class="cls-5" x="624.91" y="21.34" width="136.25" height="136.25" transform="translate(1001.78 -537.41) rotate(108.87)"/><rect class="cls-3" x="827.76" y="363.08" width="136.25" height="136.25" transform="translate(1834.28 102.62) rotate(135)"/><rect class="cls-3" x="1048.51" y="-0.13" width="125.19" height="125.19" transform="translate(1940.95 -679.04) rotate(135)"/><rect class="cls-2" x="306.82" y="193.47" width="54.08" height="54.08" transform="translate(725.87 140.37) rotate(135)"/><rect class="cls-5" x="1019.57" y="210.98" width="136.25" height="136.25" transform="translate(1703.51 -659.92) rotate(108.87)"/><rect class="cls-4" x="-13.62" y="296.06" width="398.43" height="398.43" transform="translate(31.18 -10.59) rotate(3.57)"/><rect class="cls-6" x="49.56" y="411.56" width="644.89" height="644.89" transform="translate(-402.35 455.57) rotate(-43.35)"/><rect class="cls-7" x="-268.88" y="310.29" width="644.89" height="644.89" transform="translate(-419.7 209.36) rotate(-43.35)"/><rect class="cls-8" x="-14.35" y="585" width="86.19" height="86.19" transform="translate(452.55 163.64) rotate(45)"/><rect class="cls-9" x="881.14" y="570.92" width="114.36" height="114.36" transform="translate(1914.83 61.18) rotate(116.06)"/><rect class="cls-10" x="603.4" y="310.29" width="644.89" height="644.89" transform="translate(-181.76 808.11) rotate(-43.35)"/><rect class="cls-11" x="867.06" y="205.51" width="138.24" height="138.24" transform="translate(66.87 717.52) rotate(-43.35)"/><rect class="cls-6" x="902.98" y="292.66" width="138.24" height="138.24" transform="translate(16.84 765.95) rotate(-43.35)"/><rect class="cls-8" x="80.51" y="580.31" width="114.36" height="114.36" transform="matrix(0.08, 1, -1, 0.08, 762.89, 451.78)"/><rect class="cls-8" x="170.64" y="550.1" width="114.36" height="114.36" transform="matrix(0.08, 1, -1, 0.08, 816.04, 333.99)"/><rect class="cls-8" x="549.96" y="605.03" width="114.36" height="114.36" transform="translate(521.11 -232.07) rotate(37.02)"/><rect class="cls-9" x="745.2" y="590.93" width="114.36" height="114.36" transform="translate(693.3 -377.54) rotate(45)"/><rect class="cls-9" x="60.46" y="630.87" width="136.25" height="136.25" transform="translate(831.01 590.73) rotate(91.66)"/><rect class="cls-3" x="398.23" y="591.14" width="105.25" height="105.25" transform="translate(829.43 -44.99) rotate(63.8)"/><rect class="cls-12" x="793.51" y="573.72" width="105.25" height="105.25" transform="translate(836.64 -426.35) rotate(52.97)"/><rect class="cls-9" x="352.11" y="660.11" width="136.25" height="136.25" transform="translate(681.78 -70.84) rotate(48.11)"/><rect class="cls-3" x="176.81" y="653.65" width="136.25" height="136.25" transform="translate(983.23 532.36) rotate(94.36)"/><rect class="cls-9" x="574.59" y="633.74" width="136.25" height="136.25" transform="translate(736.08 -245.22) rotate(48.11)"/><rect class="cls-13" x="680.75" y="657.84" width="136.25" height="136.25" transform="matrix(0.29, 0.96, -0.96, 0.29, 1227.46, -200.75)"/><rect class="cls-9" x="889.68" y="591.88" width="114.36" height="114.36" transform="translate(1113.88 -486.69) rotate(63.94)"/><rect class="cls-8" x="889.68" y="537.85" width="114.36" height="114.36" transform="translate(1612.09 -303.9) rotate(94.36)"/><rect class="cls-8" x="259.9" y="590.98" width="114.36" height="114.36" transform="translate(987.44 381.22) rotate(94.36)"/><rect class="cls-8" x="906.61" y="584.56" width="114.36" height="114.36" transform="translate(2119.69 573.81) rotate(142.98)"/><rect class="cls-9" x="1069.26" y="580.31" width="114.36" height="114.36" transform="translate(2373.72 291.76) rotate(135)"/><rect class="cls-14" x="752.64" y="630.87" width="136.25" height="136.25" transform="translate(1495.67 -141.69) rotate(88.34)"/><rect class="cls-3" x="1001.71" y="537.03" width="105.25" height="105.25" transform="translate(2048.9 -96.03) rotate(116.2)"/><rect class="cls-12" x="1009.46" y="589.11" width="105.25" height="105.25" transform="translate(2213.99 180.27) rotate(127.03)"/><rect class="cls-9" x="1070.94" y="660.11" width="136.25" height="136.25" transform="translate(2441.73 366.51) rotate(131.89)"/><rect class="cls-9" x="848.46" y="633.74" width="136.25" height="136.25" transform="translate(2051.08 488.15) rotate(131.89)"/><rect class="cls-13" x="382.73" y="657.27" width="136.25" height="136.25" transform="translate(1275.58 503.4) rotate(106.8)"/><rect class="cls-15" x="225.72" y="679.39" width="136.25" height="136.25" transform="translate(1049.56 475.47) rotate(91.66)"/><rect class="cls-16" x="463.73" y="816.31" width="35.58" height="35.58" transform="translate(-433.87 534.66) rotate(-41.89)"/><rect class="cls-17" x="-49.2" y="639.36" width="136.25" height="136.25" transform="translate(714.46 576.61) rotate(80.88)"/><rect class="cls-18" x="570.41" y="723.97" width="136.25" height="136.25" transform="translate(1212.32 -48.1) rotate(73.2)"/><rect class="cls-14" x="456.76" y="700.01" width="136.25" height="136.25" transform="matrix(0.87, 0.5, -0.5, 0.87, 454.39, -159.53)"/><rect class="cls-19" x="1032.07" y="741" width="136.25" height="136.25" transform="translate(87.9 -107.6) rotate(5.83)"/><rect class="cls-15" x="1161.33" y="639.36" width="136.25" height="136.25" transform="matrix(0.03, 1, -1, 0.03, 1901, -541.97)"/><rect class="cls-16" x="1059.99" y="816.31" width="35.58" height="35.58" transform="translate(1323.21 2174.67) rotate(-138.11)"/><rect class="cls-17" x="870.51" y="675.22" width="136.25" height="136.25" transform="translate(1821.41 -65.54) rotate(99.12)"/><rect class="cls-20" x="695.2" y="724.05" width="136.25" height="136.25" transform="matrix(0.34, 0.94, -0.94, 0.34, 1250.06, -194.38)"/><rect class="cls-9" x="511.21" y="687.67" width="136.25" height="136.25" transform="translate(1318.02 154.79) rotate(88.34)"/><rect class="cls-18" x="830.85" y="706.94" width="170.31" height="170.31" transform="translate(1939.01 144.08) rotate(106.8)"/><rect class="cls-21" x="944.5" y="682.98" width="170.31" height="170.31" transform="translate(2305.44 918.53) rotate(150)"/><rect class="cls-16" x="799.34" y="732.74" width="35.58" height="35.58" transform="translate(6.71 1508.29) rotate(-85.64)"/><rect class="cls-22" x="79.01" y="699.69" width="170.31" height="170.31" transform="translate(958.21 896.28) rotate(109.8)"/><rect class="cls-9" x="178.3" y="740.55" width="170.31" height="170.31" transform="translate(1096.46 586.3) rotate(91.66)"/><rect class="cls-3" x="-66.23" y="723.96" width="170.31" height="170.31" transform="translate(824.27 728.8) rotate(85.64)"/><rect class="cls-22" x="-89.91" y="723.96" width="170.31" height="170.31" transform="translate(679.84 1240.43) rotate(121.87)"/><rect class="cls-23" x="13.75" y="743.59" width="170.31" height="170.31" transform="translate(930.17 753.91) rotate(91.66)"/><rect class="cls-16" x="97.33" y="725.41" width="35.58" height="35.58" transform="translate(-525.36 1137.38) rotate(-112.81)"/><rect class="cls-22" x="316.65" y="768.35" width="158.64" height="158.64" transform="translate(1211.12 388.47) rotate(85.64)"/><rect class="cls-23" x="628.74" y="753.62" width="170.31" height="170.31" transform="matrix(0.03, 1, -1, 0.03, 1531.62, 100.86)"/><rect class="cls-22" x="745.94" y="761.61" width="170.31" height="170.31" transform="translate(1743.93 1604.72) rotate(174.17)"/><rect class="cls-23" x="908.59" y="765.66" width="170.31" height="170.31" transform="translate(1226.82 2138.1) rotate(-140.83)"/><rect class="cls-22" x="1063.1" y="750.5" width="170.31" height="170.31" transform="translate(2068.71 -245.82) rotate(94.36)"/><rect class="cls-22" x="546.38" y="753.62" width="170.31" height="170.31" transform="matrix(0.53, 0.85, -0.85, 0.53, 1010.33, -140.46)"/><rect class="cls-23" x="483.49" y="785.96" width="152.3" height="152.3" transform="translate(-418.76 547.19) rotate(-39.17)"/><rect class="cls-11" x="-1.09" y="203.86" width="130.3" height="130.3" transform="translate(-167.18 117.36) rotate(-43.35)"/><rect class="cls-11" x="335.3" y="298.01" width="95.82" height="95.82" transform="translate(-132.91 357.4) rotate(-43.35)"/></g><g id="Blub"><path class="cls-24" d="M720.71,408.75l1.53,2.61.75,1.35c.25.44.53.8.8,1.21l1.61,2.37c.55.78,1.2,1.49,1.79,2.24a69.61,69.61,0,0,0,8,8.18A144.92,144.92,0,0,0,754,440c3.29,2,6.61,3.94,9.94,5.89s6.66,3.92,9.9,6.11a29.12,29.12,0,0,1,2.4,1.73,25.35,25.35,0,0,1,2.3,1.92,41.26,41.26,0,0,1,4.1,4.35,50.67,50.67,0,0,1,6.3,10.05,72.11,72.11,0,0,1,6.45,22.66,81.67,81.67,0,0,1,.45,11.83,68.76,68.76,0,0,1-1.53,11.79,52,52,0,0,1-3.86,11.35,42.52,42.52,0,0,1-6.63,10.15A38.35,38.35,0,0,1,750.46,550a48.28,48.28,0,0,1-11.78-3.22A61,61,0,0,1,728,541.08c-1.69-1.08-3.28-2.3-4.88-3.49s-3.12-2.5-4.57-3.86a104.85,104.85,0,0,1-26.81-38.89,66.55,66.55,0,0,1-3.28-11.64c-.21-1-.29-2-.43-3.06s-.14-2.09-.19-3.13a40.45,40.45,0,0,1,.47-6.17,68,68,0,0,1,3-11.64,107,107,0,0,1,4.45-10.92A184.22,184.22,0,0,1,707,427.84q3.14-4.9,6.48-9.65,1.67-2.38,3.38-4.72l1.76-2.31.89-1.15.45-.57.23-.28.11-.14A.69.69,0,0,1,720.71,408.75Zm-.06.6c.06.1.24,0,.18,0l-.1.15-.19.31-.38.61-.76,1.23-1.49,2.48c-1,1.65-2,3.3-2.94,5q-2.89,5-5.57,10.09A217.47,217.47,0,0,0,699.62,450c-2.77,7.05-5.22,14.3-6,21.56a40.09,40.09,0,0,0-.23,5.36c.08.88.12,1.75.24,2.63s.24,1.77.46,2.65a60.85,60.85,0,0,0,3.3,10.5,92.33,92.33,0,0,0,4.85,10.08,104.63,104.63,0,0,0,5.91,9.55c1,1.55,2.17,3.05,3.27,4.57s2.29,3,3.52,4.38,2.47,2.81,3.72,4.2,2.6,2.69,4,3.93,2.76,2.49,4.17,3.71,2.9,2.32,4.43,3.35a54.65,54.65,0,0,0,9.56,5.47,43.12,43.12,0,0,0,10.4,3.11,32.35,32.35,0,0,0,10.72-.09,33,33,0,0,0,18.72-10.05,38.3,38.3,0,0,0,6.14-9,48,48,0,0,0,3.77-10.43,65,65,0,0,0,1.66-11.09A78.15,78.15,0,0,0,792,493a68.91,68.91,0,0,0-5.73-21.75c-3.07-6.85-7.56-13.11-13.76-17.36-3.09-2.21-6.35-4.25-9.62-6.29s-6.55-4.07-9.81-6.16a146.35,146.35,0,0,1-18.63-13.88,70.65,70.65,0,0,1-7.93-8.52c-.58-.78-1.22-1.51-1.76-2.32l-1.57-2.46c-.25-.41-.55-.82-.76-1.22l-.59-1.22Z"/><path class="cls-22" d="M461.56,205.08c-1.86-13,23.93-17.43,28.21-17.43S503,199.32,507.28,200s80.29-5,103.14-5,23.51,2.41,27.36,2.41c11.74,0,17.45-19.45,29.3-21.34,15.7-2.5,39.66,16.14,39.66,21.34,0,12.67-24.57,33.92-22.57,49.49,2.69,20.95,21.82,20.24,22.54,38.1s-10.71,47.86-22.14,55S655.42,357.23,604,360.8s-123.57-2.86-135.71-15-28.57-56.16-22.14-72.37,21.87-43.06,21.63-46C467,218.86,463,215.08,461.56,205.08Z"/><path class="cls-24" d="M644.83,707.48c-4.12,0-7.91-.11-11.59-.35a61.68,61.68,0,0,1-8.21-1.06,17.91,17.91,0,0,1-4.46-1.5,8.21,8.21,0,0,1-1.27-.85l-.83-.68-.23-.21a17.22,17.22,0,0,1-1.45-1.5,21,21,0,0,1-2.57-3.68,30.58,30.58,0,0,1-1.85-3.89,64.74,64.74,0,0,1-2.48-7.85c-.75-2.93-1.42-5.88-2.06-8.74-.5-2.22-1-4.44-1.53-6.64A139.06,139.06,0,0,0,602,655.74a64.87,64.87,0,0,0-6.4-13.54c-2-3-5.32-6.91-10.34-8.23a16.22,16.22,0,0,0-4.52-.55c-.68,0-1.44,0-2.3.08-2,.14-4.08.46-6.25.79l-1.3.2a46.19,46.19,0,0,1-6.83.64c-.55,0-1.11,0-1.68-.05a35.55,35.55,0,0,1-8.42-1.73c-3.48-1.1-6.76-2.49-9.94-3.83-1.61-.68-3.28-1.38-4.91-2a63.73,63.73,0,0,0-7.09-2.39c-.4-.12-.75-.19-1.11-.26l-.68-.15a13.71,13.71,0,0,0-1.7-.3l-1.23-.18h-.16a2.7,2.7,0,0,0-.75.21,10.06,10.06,0,0,0-2.44,1.64,28.78,28.78,0,0,0-2.51,2.48,70.35,70.35,0,0,0-4.69,5.87c-3.09,4.25-5.94,8.73-8.57,12.93-2.31,3.71-4.62,7.52-6.85,11.21-3.12,5.15-6.34,10.47-9.65,15.65-2.58,4-5.68,8.74-9.15,13.2a61.26,61.26,0,0,1-5.5,6.27,28.21,28.21,0,0,1-3.42,2.89,17.67,17.67,0,0,1-2,1.24,20.32,20.32,0,0,1-2,1,71.59,71.59,0,0,1-15.83,4.76,145.41,145.41,0,0,1-16,2.21c-4.77.41-9.51.62-14.1.62h-2a117.59,117.59,0,0,1-16.19-1.2,64,64,0,0,1-8.15-1.69,34.15,34.15,0,0,1-8.19-3.3l-.62-.41c-.46-.3-.93-.61-1.4-1l-1-.82-.46-.41c-.17-.17-.28-.3-.39-.43l-1-1.14a7,7,0,0,1-.57-.89l-.39-.69a5.9,5.9,0,0,1-.46-.9l-.42-1.06a38.42,38.42,0,0,1-1.9-8.59,122,122,0,0,1-.53-16.28c.12-4.9.43-10.12.94-16,.91-10.32,2.3-20.94,4.12-31.54,1-5.75,2-10.88,3.09-15.66.62-2.74,1.27-5.3,2-7.84.33-1.19.74-2.49,1.23-4l.75-2,.3-.69a13.33,13.33,0,0,1,.73-1.51l.57-1a24,24,0,0,1,1.77-2.8l.32-.45c.69-1,1.41-2,2.18-2.9,1.64-2.1,3.43-4.1,5.16-6l.12-.14c3.72-4.07,7.58-7.9,11.2-11.43,7.46-7.2,15.26-14.17,22.81-20.91l.61-.55c1.89-1.69,3.84-3.44,5.67-5.14a16.81,16.81,0,0,0,3.68-5.11c.21-.44.4-.9.57-1.36l.31-.83.86.21c2,.48,4,.93,6,1.33l1.12.23-.37,1.08a27.43,27.43,0,0,1-1.1,2.79,24.9,24.9,0,0,1-5.45,7.59c-1.9,1.79-3.82,3.51-5.67,5.18l-.22.2c-7.89,7.08-15.59,14-23.07,21.22-3.53,3.42-7.3,7.13-10.89,11l-.15.17c-1.63,1.81-3.31,3.67-4.8,5.56a40.79,40.79,0,0,0-4,5.85,6.83,6.83,0,0,0-.43.88c-.09.2-.17.4-.27.59l-.6,1.61c-.44,1.31-.8,2.44-1.1,3.52-.68,2.37-1.32,4.86-1.9,7.42C395,610.9,394,615.88,393,621.48c-1.83,10.49-3.25,20.88-4.2,30.88-.53,5.67-.86,10.73-1,15.47a112.36,112.36,0,0,0,.38,15.19,30.57,30.57,0,0,0,1.41,6.77l.28.74a1,1,0,0,0,.12.23,3.58,3.58,0,0,1,.18.32,2.31,2.31,0,0,1,.12.23,1.18,1.18,0,0,0,.11.2l.42.49.16.2.23.2.58.51c.18.14.42.3.67.46l.59.4a26.8,26.8,0,0,0,6.3,2.53,57.25,57.25,0,0,0,7.24,1.55,111.33,111.33,0,0,0,15.19,1.22q1.43,0,2.87,0c4.08,0,8.28-.17,12.51-.51a138.33,138.33,0,0,0,15.21-2,65.93,65.93,0,0,0,14.27-4.16,15,15,0,0,0,1.52-.76,11.44,11.44,0,0,0,1.38-.82,21.33,21.33,0,0,0,2.59-2.17,54.8,54.8,0,0,0,4.91-5.54c3.35-4.26,6.36-8.77,8.86-12.62,3.28-5.07,6.5-10.33,9.62-15.42,2.27-3.71,4.62-7.54,7-11.29,2.72-4.3,5.67-8.88,8.9-13.27a77.09,77.09,0,0,1,5.17-6.39,35.37,35.37,0,0,1,3.11-3,16.28,16.28,0,0,1,4.13-2.66,9,9,0,0,1,3-.71l.85,0a4.38,4.38,0,0,1,.51.05l1.22.18a19,19,0,0,1,2.16.39l.67.15c.47.1.95.21,1.41.34a68.61,68.61,0,0,1,7.77,2.66c1.73.69,3.44,1.42,5.1,2.13,3.2,1.37,6.22,2.66,9.31,3.65a28.49,28.49,0,0,0,6.94,1.49c.45,0,.9,0,1.35,0a42,42,0,0,0,5.82-.54l1.37-.2c2.15-.32,4.37-.66,6.68-.8,1-.05,1.79-.08,2.55-.08a22.45,22.45,0,0,1,6.27.79l.54.13,1.61.6,1.08.41,0,0,.69.37.3.17.64.36a12,12,0,0,1,1.36.82l1.75,1.34a8.51,8.51,0,0,1,1.27,1.14l.39.39.51.52c.35.35.7.71,1,1.08s.61.8.9,1.16c.58.74,1.17,1.5,1.69,2.32.25.42.49.82.74,1.21.48.78,1,1.58,1.41,2.4l1.81,3.69c1.05,2.35,2,4.82,3,7.56A144.94,144.94,0,0,1,612,669.16c.54,2.27,1,4.54,1.53,6.8.62,2.81,1.25,5.72,2,8.51a57.5,57.5,0,0,0,2.22,7.16,24.81,24.81,0,0,0,1.5,3.21,15.51,15.51,0,0,0,1.9,2.76,10.24,10.24,0,0,0,.89.93l.26.25.6.49a1.45,1.45,0,0,0,.26.18l.22.14a13.06,13.06,0,0,0,2.9.92,56,56,0,0,0,7.4,1c3.83.27,7.85.4,12.28.4,6.77,0,13.61-.32,18.82-.6,10.42-.6,20.91-1.55,31.18-2.83,5.49-.68,10.55-1.42,15.46-2.26,4.23-.73,9.78-1.76,15.13-3.25a34.43,34.43,0,0,0,6.81-2.53,6.06,6.06,0,0,0,1-.7l.07-.07h0a5.58,5.58,0,0,0,.48-.86,11.29,11.29,0,0,0,.84-3.09,34.68,34.68,0,0,0,.14-7.3c-.15-2.18-.43-4.53-.91-7.6-.57-3.65-1.3-7.37-2-11q-.43-2.21-.86-4.43L732,655a71.93,71.93,0,0,1-1.12-7.65,16.77,16.77,0,0,1,0-2.29,22,22,0,0,1,.35-2.29,41.65,41.65,0,0,1,1.22-4.05l.08-.21A81.55,81.55,0,0,0,736.82,624a52.54,52.54,0,0,0,.36-15,73.87,73.87,0,0,0-3.43-14.89,133.64,133.64,0,0,0-5.56-14.47c-1-2.32-2.19-4.64-3.31-6.89s-2.4-4.82-3.51-7.33a58,58,0,0,1-2.75-7.66c-.1-.41-.19-.78-.29-1.15-.24-.93-.48-1.89-.64-2.87l-.37-1.94-.27-2c-.19-1.19-.27-2.42-.34-3.6l-.16-2.43,0-2-.06-4,0-4c0-2.28.06-4.72.16-7.91.06-2.69.15-5.35.26-7.89.82-21.2,2.07-42.42,3.28-62.93q.23-4,.46-7.91c.46-7.71.93-15.68,1.25-23.5l0-.87c0-1,.06-2,0-3-.08-1.3-.22-2.58-.4-3.79-.35-2.38-.85-4.86-1.52-7.6a119,119,0,0,0-4.75-14.82,115.73,115.73,0,0,0-6.63-14.08A90.38,90.38,0,0,0,700,366.6a65.53,65.53,0,0,0-10.9-10.88,51.41,51.41,0,0,0-13.3-7.56A113.84,113.84,0,0,0,664.53,345c-3.54-.83-7.32-1.65-11.57-2.49-7.23-1.44-14.86-2.78-23.35-4.12-15.94-2.45-31.78-4.31-47.08-5.53-13-1-24.59-1.48-35.36-1.48-4,0-8.05.07-11.9.21a211.12,211.12,0,0,0-23.4,2c-9.22,1.43-16.28,3.31-22.21,5.91a43.78,43.78,0,0,0-4.94,2.57,27.34,27.34,0,0,0-4.22,3.22,12.5,12.5,0,0,0-1.28,1.32l-.56.63-.4.56-.67.92-.3.53-.25.45a6.07,6.07,0,0,0-.34.63l-.51,1.2c-.19.49-.37,1.06-.55,1.63-.11.34-.21.68-.33,1-1,3.32-1.94,7-2.8,11.21-.44,2.07-.8,3.95-1.12,5.75-.39,2.05-.72,4.08-1,5.8s-.54,3.44-.8,5.16l-2-.05-.44-4.61c-.79,1.94-1.62,3.77-2.5,5.48l-1.88-.62q.55-3.24,1.14-6.48c.32-1.74.7-3.8,1.15-5.9.36-1.84.78-3.76,1.27-5.88,1-4.38,2-8.23,3.2-11.74.13-.36.24-.69.35-1,.21-.63.44-1.28.72-2l.69-1.53a11.19,11.19,0,0,1,.59-1.06l.71-1.18.54-.74.32-.42c.23-.31.46-.62.71-.91l.6-.65a18.15,18.15,0,0,1,1.79-1.78,32.74,32.74,0,0,1,5.19-3.81,49.73,49.73,0,0,1,5.7-2.82c8.33-3.44,17-4.92,23.7-5.82a216.07,216.07,0,0,1,24-1.6q2.49,0,5,0c12.84,0,26.81.75,42.72,2.28,15.41,1.47,31.3,3.56,47.24,6.21,8.54,1.41,16.2,2.82,23.43,4.31,4.31.89,8.12,1.74,11.65,2.6a116,116,0,0,1,11.56,3.31,54,54,0,0,1,14,7.94A68.07,68.07,0,0,1,702,365a93,93,0,0,1,8.87,13.26,118.12,118.12,0,0,1,6.77,14.4,121.85,121.85,0,0,1,4.86,15.14c.69,2.83,1.2,5.39,1.56,7.84.19,1.28.34,2.64.43,4,.05,1,0,1.93,0,2.85,0,.39,0,.79,0,1.18-.25,7.88-.66,15.85-1.06,23.56q-.2,4-.4,7.95l-1.54,31.46c-.58,12.61-.95,22.3-1.17,31.44-.08,2.54-.13,5.18-.17,7.85,0,2.15-.08,5-.07,7.84v3.93l.16,5.85.18,2.39a32.25,32.25,0,0,0,.35,3.26l.28,2,.37,1.84c.15.88.37,1.71.61,2.6.1.37.2.74.29,1.12a54.27,54.27,0,0,0,2.63,7.07c1.08,2.37,2.31,4.76,3.5,7.08s2.38,4.64,3.48,7a136.23,136.23,0,0,1,5.87,14.86,78.69,78.69,0,0,1,3.75,15.71,56.91,56.91,0,0,1-.26,16.33A85.21,85.21,0,0,1,737,640l-.1.28c-.47,1.37-.8,2.5-1,3.52-.11.6-.19,1.12-.23,1.6a12.28,12.28,0,0,0,0,1.6,71.3,71.3,0,0,0,1.17,7.41l0,.1q.43,2.18.89,4.38c.75,3.63,1.52,7.39,2.13,11.15.51,3.13.83,5.68,1,8a38.83,38.83,0,0,1-.14,8.41,16.57,16.57,0,0,1-1.23,4.47,5.65,5.65,0,0,1-.39.77l-.17.3a5.57,5.57,0,0,1-1,1.34,9.9,9.9,0,0,1-2.06,1.51,26.83,26.83,0,0,1-4.06,1.81c-1.15.42-2.4.82-3.92,1.26-5.52,1.57-11,2.63-15.63,3.45-5,.88-10.13,1.66-15.69,2.38-10.37,1.34-21,2.36-31.52,3-6,.35-13.11.71-20.25.71Z"/><path class="cls-22" d="M671.28,341.94c33.4,12.44,47,60.71,47,74s-6.75,107.67-4.54,127,10.21,22.33,18.21,49-3,40-3.67,48,9.33,36.67,3.33,46-104.67,18.67-115.33,10.67-8.67-30-19.33-54S572.28,626.32,560.28,627s-24.81-9.67-37.74-11-40.26,63.33-56.93,73.33-74,12.67-83.33-.67,2.67-89.67,9.33-103,41.33-42.54,50-50.77,6.67-21.56,6.67-21.56,7.33-133.33,20-167.52C483.49,304.74,648.15,333.32,671.28,341.94Z"/><path class="cls-22" d="M717.68,412.05c9.93,21.94,39.93,34.67,53.93,44.91,26,19,29.33,83.69-10.67,93-36.5,8.52-72.67-44.67-73.33-70S717.68,412.05,717.68,412.05Z"/><path class="cls-25" d="M717.71,411.75l1.53,2.61.75,1.35c.25.44.53.8.8,1.21l1.61,2.37c.55.78,1.2,1.49,1.79,2.24a69.61,69.61,0,0,0,8,8.18A144.92,144.92,0,0,0,751,443c3.29,2,6.61,3.94,9.94,5.89s6.66,3.92,9.9,6.11a29.12,29.12,0,0,1,2.4,1.73,25.35,25.35,0,0,1,2.3,1.92,41.26,41.26,0,0,1,4.1,4.35,50.67,50.67,0,0,1,6.3,10.05,72.11,72.11,0,0,1,6.45,22.66,81.67,81.67,0,0,1,.45,11.83,68.76,68.76,0,0,1-1.53,11.79,52,52,0,0,1-3.86,11.35,42.52,42.52,0,0,1-6.63,10.15A38.35,38.35,0,0,1,747.46,553a48.28,48.28,0,0,1-11.78-3.22A61,61,0,0,1,725,544.08c-1.69-1.08-3.28-2.3-4.88-3.49s-3.12-2.5-4.57-3.86a104.85,104.85,0,0,1-26.81-38.89,66.55,66.55,0,0,1-3.28-11.64c-.21-1-.29-2-.43-3.06s-.14-2.09-.19-3.13a40.45,40.45,0,0,1,.47-6.17,68,68,0,0,1,3-11.64,107,107,0,0,1,4.45-10.92A184.22,184.22,0,0,1,704,430.84q3.14-4.9,6.48-9.65,1.67-2.38,3.38-4.72l1.76-2.31.89-1.15.45-.57.23-.28.11-.14A.69.69,0,0,1,717.71,411.75Zm-.06.6c.06.1.24,0,.18,0l-.1.15-.19.31-.38.61-.76,1.23-1.49,2.48c-1,1.65-2,3.3-2.94,5q-2.89,5-5.57,10.09A217.47,217.47,0,0,0,696.62,453c-2.77,7.05-5.22,14.3-6,21.56a40.09,40.09,0,0,0-.23,5.36c.08.88.12,1.75.24,2.63s.24,1.77.46,2.65a60.85,60.85,0,0,0,3.3,10.5,92.33,92.33,0,0,0,4.85,10.08,104.63,104.63,0,0,0,5.91,9.55c1,1.55,2.17,3.05,3.27,4.57s2.29,3,3.52,4.38,2.47,2.81,3.72,4.2,2.6,2.69,4,3.93,2.76,2.49,4.17,3.71,2.9,2.32,4.43,3.35a54.65,54.65,0,0,0,9.56,5.47,43.12,43.12,0,0,0,10.4,3.11,32.35,32.35,0,0,0,10.72-.09,33,33,0,0,0,18.72-10.05,38.3,38.3,0,0,0,6.14-9,48,48,0,0,0,3.77-10.43,65,65,0,0,0,1.66-11.09A78.15,78.15,0,0,0,789,496a68.91,68.91,0,0,0-5.73-21.75c-3.07-6.85-7.56-13.11-13.76-17.36-3.09-2.21-6.35-4.25-9.62-6.29s-6.55-4.07-9.81-6.16a146.35,146.35,0,0,1-18.63-13.88,70.65,70.65,0,0,1-7.93-8.52c-.58-.78-1.22-1.51-1.76-2.32l-1.57-2.46c-.25-.41-.55-.82-.76-1.22l-.59-1.22Z"/><path class="cls-26" d="M650.71,354.16c1.13-.28,2.24-.56,3.3-.85,12.21-5,3.26-57.32,15.93-73s11.67-35.67,6.67-49.56-29.05-25.5-57.61-35.54c-2.45-.09-5.28-.14-8.58-.14-16.47,0-60.55,2.94-85.49,4.32,4.52,5.42,8.87,13-2,18.58-13.67,7-24.33,5.33-24.67,29s12.64,84.12,21.76,98.52c3.46,5.46,4,8.69,3.24,10.59-5.51,2.07-9.25,4.06-10.54,5.68-14.66,18.46-19.45,47.37-17.2,59.87s-10.75,100.21,23.25,131.71,42.82,35.29,105.39,14.29S697.62,481,697.7,450.33C697.77,420.89,689,375,650.71,354.16Z"/><path class="cls-27" d="M664,223.07c-30.08-17,6.22-43.84,25-24.38C694.63,204.54,676.12,229.91,664,223.07Z"/><path class="cls-25" d="M663.87,223.34a45.78,45.78,0,0,1-5.55-3.87,24.45,24.45,0,0,1-2.5-2.32,18,18,0,0,1-2.15-2.71,13.12,13.12,0,0,1-2.23-6.76,13.39,13.39,0,0,1,1.85-7.08,22.26,22.26,0,0,1,11.07-9.09,25.46,25.46,0,0,1,14.44-1.3,25,25,0,0,1,7,2.63,27.35,27.35,0,0,1,3.14,2.08c.48.4,1,.78,1.44,1.21l.71.66A6.31,6.31,0,0,1,692,198a8.47,8.47,0,0,1,.95,5,16.29,16.29,0,0,1-.91,4,26.84,26.84,0,0,1-3.53,6.56,28.38,28.38,0,0,1-11,9.24,20.53,20.53,0,0,1-6.91,2A11.06,11.06,0,0,1,663.87,223.34Zm.3-.52a8,8,0,0,0,6.22.47,14.86,14.86,0,0,0,5.36-3.3,35.83,35.83,0,0,0,4.22-4.7c1.28-1.66,2.48-3.36,3.57-5.1a33,33,0,0,0,2.71-5.32,13.8,13.8,0,0,0,.72-2.52,4.2,4.2,0,0,0,0-1.55l0-.12-.48-.53c-.33-.38-.7-.7-1-1.06a20.69,20.69,0,0,0-2.32-1.84,18.2,18.2,0,0,0-5.39-2.46,21.32,21.32,0,0,0-12,.39,19.06,19.06,0,0,0-9.91,7,12,12,0,0,0-2.16,5.59,11.29,11.29,0,0,0,1.11,6.1,16.9,16.9,0,0,0,4,5.2A27,27,0,0,0,664.17,222.81Z"/><path class="cls-25" d="M729.91,638.55c.28-1.19.65-2.4,1.07-3.62a86.24,86.24,0,0,0,4.38-15.32,56.05,56.05,0,0,0,.25-16A77.69,77.69,0,0,0,731.9,588a134.58,134.58,0,0,0-5.83-14.76c-2.21-4.81-4.83-9.39-7-14.1a55.62,55.62,0,0,1-2.69-7.24c-.31-1.25-.69-2.48-.91-3.76l-.38-1.9-.28-1.92c-.22-1.28-.3-2.57-.39-3.86l-.15-1.94-.06-2-.1-3.92v-3.93c0-2.62,0-5.24.07-7.86s.09-5.24.16-7.86c.26-10.49.69-21,1.17-31.46l1.54-31.45c.51-10.49,1.12-21,1.46-31.47,0-1.32.09-2.63,0-4s-.22-2.64-.42-3.94c-.38-2.61-.92-5.19-1.55-7.75a120.37,120.37,0,0,0-4.82-15A116.78,116.78,0,0,0,705,373.71a91.64,91.64,0,0,0-8.77-13.12,67.55,67.55,0,0,0-11.17-11.15,53.06,53.06,0,0,0-13.72-7.79,113.76,113.76,0,0,0-11.46-3.28c-3.85-.94-7.73-1.79-11.61-2.59-7.77-1.6-15.57-3-23.39-4.31q-23.46-3.91-47.17-6.2A426.85,426.85,0,0,0,530.16,323a216.05,216.05,0,0,0-23.87,1.59c-7.92,1.08-15.87,2.63-23.45,5.76a48.59,48.59,0,0,0-5.54,2.74,32.27,32.27,0,0,0-5.09,3.73,26.41,26.41,0,0,0-2.26,2.3c-.34.42-.66.86-1,1.29l-.49.66-.42.7c-.27.48-.58.93-.82,1.43l-.68,1.51c-.41,1-.69,1.94-1,2.91-1.28,3.87-2.29,7.75-3.18,11.66-.46,2-.88,3.9-1.27,5.86s-.78,3.91-1.14,5.87q-.59,3.23-1.14,6.46a71.75,71.75,0,0,0,4-9.44l.85,8.93q.39-2.59.8-5.17c.31-1.94.64-3.89,1-5.82s.72-3.86,1.12-5.78c.78-3.84,1.7-7.65,2.83-11.33.3-.9.57-1.86.9-2.7l.51-1.21c.18-.4.43-.77.64-1.16l.33-.58.39-.54c.27-.36.51-.73.79-1.08a22.61,22.61,0,0,1,1.87-2,28.54,28.54,0,0,1,4.41-3.38,45,45,0,0,1,5-2.63c7-3.08,14.74-4.79,22.47-6a213.29,213.29,0,0,1,23.51-2,424.81,424.81,0,0,1,47.38,1.27c15.77,1.26,31.51,3.14,47.16,5.54,7.82,1.23,15.62,2.58,23.39,4.12,3.88.77,7.75,1.59,11.61,2.5a113.3,113.3,0,0,1,11.41,3.17,52.46,52.46,0,0,1,13.56,7.7,67,67,0,0,1,11.07,11,91,91,0,0,1,8.71,13,116.17,116.17,0,0,1,6.68,14.2A119.77,119.77,0,0,1,716,403.15c.62,2.54,1.15,5.11,1.53,7.69.19,1.29.33,2.59.41,3.89s0,2.61,0,3.91c-.42,10.48-1.11,21-1.71,31.44C715,471,713.73,492,712.92,513q-.16,3.94-.26,7.88c-.08,2.63-.14,5.25-.16,7.89l0,3.95.06,4,0,2,.13,2c.08,1.33.15,2.66.36,4l.26,2,.37,2c.21,1.32.59,2.6.9,3.9a57.56,57.56,0,0,0,2.7,7.54c2.15,4.87,4.7,9.45,6.82,14.21a134,134,0,0,1,5.6,14.57,75.28,75.28,0,0,1,3.47,15.09,53.53,53.53,0,0,1-.37,15.32A83.83,83.83,0,0,1,728.4,634a40.39,40.39,0,0,0-1.19,3.92,21.15,21.15,0,0,0-.33,2.15,15.79,15.79,0,0,0,0,2.15,74.69,74.69,0,0,0,1.18,7.95c1,5.18,2.07,10.3,2.87,15.44.4,2.56.74,5.13.92,7.69a35,35,0,0,1-.15,7.52,12.4,12.4,0,0,1-.93,3.37,4.54,4.54,0,0,1-.73,1.19,6.3,6.3,0,0,1-1.26.89,35.43,35.43,0,0,1-7,2.61c-5,1.38-10.09,2.39-15.22,3.28s-10.32,1.62-15.51,2.27q-15.57,1.94-31.25,2.83a255.08,255.08,0,0,1-31.23.2,56.7,56.7,0,0,1-7.54-1,13.71,13.71,0,0,1-3.23-1.07,3.8,3.8,0,0,1-.56-.38l-.66-.54a15.09,15.09,0,0,1-1.2-1.24,16.44,16.44,0,0,1-2-2.92A26,26,0,0,1,611.8,687a59.62,59.62,0,0,1-2.26-7.28c-1.26-5-2.27-10.18-3.49-15.32a145.65,145.65,0,0,0-4.41-15.33c-.9-2.52-1.88-5-3-7.46l-1.79-3.66c-.64-1.21-1.41-2.36-2.11-3.55s-1.67-2.24-2.5-3.36c-.46-.53-1-1-1.48-1.54a12.43,12.43,0,0,0-1.57-1.46l-1.72-1.32c-.59-.42-1.26-.74-1.89-1.1-.32-.17-.64-.36-1-.52l-1-.39-1-.39-.52-.19-.53-.12a25.23,25.23,0,0,0-8.48-.67c-2.76.17-5.42.63-8,1a34.81,34.81,0,0,1-7.38.5,30.09,30.09,0,0,1-7.19-1.53c-4.8-1.54-9.51-3.83-14.47-5.8a68.11,68.11,0,0,0-7.7-2.63c-.66-.2-1.35-.32-2-.48a18.51,18.51,0,0,0-2.06-.38l-1-.15c-.19,0-.31-.06-.56-.07l-.77,0a8.05,8.05,0,0,0-2.68.63,15.31,15.31,0,0,0-3.87,2.5,34.24,34.24,0,0,0-3,2.94,76.65,76.65,0,0,0-5.1,6.31c-3.16,4.31-6,8.76-8.86,13.21-5.62,8.92-10.95,18-16.61,26.72-2.84,4.37-5.75,8.68-8.91,12.7a56.53,56.53,0,0,1-5,5.63,22.37,22.37,0,0,1-2.72,2.27,12.2,12.2,0,0,1-1.46.88,15.62,15.62,0,0,1-1.6.8,66.07,66.07,0,0,1-14.5,4.23,140.06,140.06,0,0,1-15.32,2c-5.15.41-10.32.59-15.48.48a112.69,112.69,0,0,1-15.32-1.23,58.2,58.2,0,0,1-7.36-1.58,27.87,27.87,0,0,1-6.61-2.68c-.44-.31-.92-.6-1.33-.92l-.57-.5-.29-.25c-.08-.09-.14-.18-.22-.27l-.45-.52a6.31,6.31,0,0,1-.35-.6,4.68,4.68,0,0,1-.34-.63l-.29-.76a32.21,32.21,0,0,1-1.46-7,115.72,115.72,0,0,1-.38-15.33c.16-5.17.53-10.35,1-15.53,1-10.36,2.42-20.7,4.21-31,.91-5.13,1.91-10.23,3.08-15.28.58-2.52,1.22-5,1.92-7.47.35-1.23.73-2.42,1.13-3.6l.64-1.7c.25-.51.42-1,.72-1.52a41.94,41.94,0,0,1,4.13-6c1.56-2,3.28-3.89,5-5.79,3.49-3.79,7.19-7.45,10.93-11.07,7.51-7.23,15.27-14.23,23.09-21.25,2-1.76,3.91-3.52,5.87-5.36a24,24,0,0,0,5.23-7.29,26.84,26.84,0,0,0,1.06-2.69q-3-.6-6-1.34c-.18.49-.38,1-.6,1.43a17.82,17.82,0,0,1-3.9,5.42c-1.87,1.74-3.82,3.49-5.77,5.24-7.82,7-15.69,14-23.3,21.35-3.79,3.7-7.54,7.44-11.15,11.38-1.79,2-3.58,4-5.26,6.14-.87,1-1.67,2.18-2.48,3.32a36.63,36.63,0,0,0-2.27,3.68c-.37.63-.64,1.36-1,2l-.74,2c-.44,1.31-.85,2.62-1.21,3.92-.73,2.6-1.38,5.19-2,7.79-1.18,5.19-2.18,10.39-3.08,15.61q-2.69,15.64-4.11,31.46c-.46,5.28-.8,10.57-.94,15.9a120.94,120.94,0,0,0,.52,16.13,37.25,37.25,0,0,0,1.84,8.35l.43,1.08a10,10,0,0,0,.58,1.1,11.81,11.81,0,0,0,.66,1.08l.82,1c.14.16.28.33.42.48l.45.4.92.79c.62.48,1.27.87,1.91,1.3a33.09,33.09,0,0,0,7.95,3.2,63.54,63.54,0,0,0,8,1.67,117.94,117.94,0,0,0,16.06,1.18c5.34.07,10.67-.15,16-.61a145.16,145.16,0,0,0,15.87-2.19,70.67,70.67,0,0,0,15.63-4.7,19.93,19.93,0,0,0,1.91-1,16.83,16.83,0,0,0,1.9-1.17,27.23,27.23,0,0,0,3.3-2.79,61.25,61.25,0,0,0,5.41-6.17c3.3-4.25,6.24-8.67,9.09-13.13,5.69-8.91,11-18,16.5-26.86,2.77-4.43,5.58-8.82,8.61-13a72.31,72.31,0,0,1,4.76-6,29.83,29.83,0,0,1,2.6-2.56,11.1,11.1,0,0,1,2.69-1.8,3.71,3.71,0,0,1,1.13-.3h.22c.08,0,.28,0,.42.05l.9.13a15.16,15.16,0,0,1,1.81.32c.6.14,1.21.24,1.81.42a63.88,63.88,0,0,1,7.2,2.43c4.8,1.88,9.57,4.17,14.78,5.83a34.27,34.27,0,0,0,8.19,1.69,38.69,38.69,0,0,0,8.3-.57c2.63-.4,5.16-.84,7.64-1a21.14,21.14,0,0,1,7.14.5c4.5,1.18,8.23,4.46,10.92,8.64a65.73,65.73,0,0,1,6.51,13.76,141.74,141.74,0,0,1,4.37,14.9c1.24,5.06,2.26,10.2,3.59,15.36a63.24,63.24,0,0,0,2.45,7.73,29.68,29.68,0,0,0,1.79,3.78,20.16,20.16,0,0,0,2.47,3.53,18.77,18.77,0,0,0,1.54,1.57l.86.7a7.7,7.7,0,0,0,1.07.71,16.92,16.92,0,0,0,4.21,1.41,60.06,60.06,0,0,0,8.06,1,258.2,258.2,0,0,0,31.71-.36q15.78-1,31.46-3c5.23-.68,10.44-1.46,15.64-2.37A158.82,158.82,0,0,0,722.65,692c1.29-.37,2.57-.77,3.85-1.24a25.61,25.61,0,0,0,3.84-1.7,9.14,9.14,0,0,0,1.92-1.4,4.78,4.78,0,0,0,.82-1.09,10,10,0,0,0,.53-1,15.4,15.4,0,0,0,1.15-4.2,37.89,37.89,0,0,0,.14-8.19c-.2-2.68-.56-5.32-1-7.94-.86-5.23-2-10.38-3-15.5a72.54,72.54,0,0,1-1.2-7.61,13.19,13.19,0,0,1,0-1.78C729.71,639.71,729.8,639.13,729.91,638.55Z"/><path class="cls-25" d="M520.49,355.25a1.43,1.43,0,0,1-.8.5,4.6,4.6,0,0,1-.87.18l-.49,0h-.39l-.29,2.81h0s11.48,1.1,2.37-13.27-22.1-74.86-21.76-98.52,11-22,24.67-29c10.86-5.56,7.09-12.28,2-18.58l-3.16.17,1.57,1.51a20.58,20.58,0,0,1,3.3,4,7.21,7.21,0,0,1,1.27,4.12,5.49,5.49,0,0,1-1.73,3.58,16.09,16.09,0,0,1-4.05,2.87c-3.23,1.69-6.76,3-10.42,4.47a43.59,43.59,0,0,0-5.55,2.66c-.46.27-.91.6-1.36.9a9.84,9.84,0,0,0-1.32,1l-1.26,1.1c-.38.41-.75.84-1.12,1.27l-.55.64-.47.7-.91,1.41c-.5,1-1,2-1.38,3s-.7,2-.95,3.05l-.64,3.06-.37,3c-.15,1-.13,2-.21,3-.16,2-.07,4-.06,6a208.93,208.93,0,0,0,2.29,23.36q1.71,11.55,4.1,22.95c.75,3.81,1.64,7.59,2.5,11.38l1.41,5.66c.48,1.88,1,3.76,1.52,5.64s1.07,3.75,1.62,5.62l.84,2.81.92,2.79.92,2.79,1,2.78c.35.93.68,1.85,1.06,2.78l1.21,2.77.61,1.38.76,1.39.76,1.39.38.69.35.58a25.37,25.37,0,0,1,2.32,4.56,7.71,7.71,0,0,1,.46,2,3,3,0,0,1,0,.67A1.74,1.74,0,0,1,520.49,355.25Z"/><path class="cls-25" d="M654,353.31l1.15-.32a9.48,9.48,0,0,0,3.06-4.12,30.16,30.16,0,0,0,1.74-6,110.48,110.48,0,0,0,1.48-12.3c.63-8.23.87-16.47,1.74-24.66A111.89,111.89,0,0,1,665,293.76a36.26,36.26,0,0,1,4.19-11.36c1.07-1.63,2.47-3.24,3.67-5l1.69-2.64c.52-.91,1-1.84,1.49-2.77a47.64,47.64,0,0,0,4-11.88,56.48,56.48,0,0,0-.87-25c-.28-1-.52-2-.86-3s-.63-2-1.07-3a23.92,23.92,0,0,0-3.42-5.54,48.76,48.76,0,0,0-9.4-8.54,98.48,98.48,0,0,0-10.68-6.57c-3.66-2-7.41-3.79-11.18-5.51-5.87-2.67-11.84-5.09-17.84-7.41-1.64-.13-3.55-.23-5.77-.31h0c30.72,11.19,52.61,21.66,57.61,35.54s6,33.89-6.67,49.56S666.23,348.32,654,353.31Z"/><path class="cls-28" d="M539.28,247c-1.67,2-7.55,12.67,0,12.67s13.67-2.84,13.67-6.33S546.82,247,539.28,247Z"/><path class="cls-24" d="M525.61,252.32,539.28,246C531.73,246,525.61,248.83,525.61,252.32Z"/><path class="cls-29" d="M556,252.61a5.09,5.09,0,0,0-.33-1.45,7.37,7.37,0,0,0-3.06-3.62,13.69,13.69,0,0,0-6.85-2,50.47,50.47,0,0,0-5.66.15c-7.83.91-15.64,6.84-14.78,7.6h.6a4.14,4.14,0,0,1,2.08-.71,9.39,9.39,0,0,0,1.47-.22,2.6,2.6,0,0,0,1.23-.77,6.28,6.28,0,0,1,1.35-1.15,15.06,15.06,0,0,1,1.64-.88c.56-.31,1.16-.57,1.76-.84.91-.4,1.87-.75,2.85-1.11L538,248c-.32.41-.63.83-.92,1.26a23.87,23.87,0,0,0-1.57,2.72A14.56,14.56,0,0,0,534.4,255a5.82,5.82,0,0,0,.26,3.86,4.28,4.28,0,0,0,1.61,1.73,6.17,6.17,0,0,0,2,.72c.33.07.63.08,1,.12l.81,0c.54,0,1.08,0,1.62,0a25.28,25.28,0,0,0,6.55-.88,17.63,17.63,0,0,0,3.35-1.26,9.06,9.06,0,0,0,3.33-2.69,6.27,6.27,0,0,0,1.07-2.59c0-.25.06-.51.08-.76S556,252.86,556,252.61Zm-6.12.92a3.14,3.14,0,0,1-1.1,1.35,8.83,8.83,0,0,1-2.14,1.26,20.89,20.89,0,0,1-5.29,1.44c-.46.08-.93.15-1.4.19l-.7.08c-.18,0-.39,0-.56,0a3.26,3.26,0,0,1-.89-.12,1.15,1.15,0,0,1-.53-.35,3.09,3.09,0,0,1-.47-2,12.42,12.42,0,0,1,.46-2.75,23,23,0,0,1,1-2.77c.18-.46.38-.92.59-1.36.11-.22.22-.45.33-.66s.28-.44.26-.55c.57.24.94.47,1.34.66s1,.38,1.41.6c.92.38,1.81.78,2.66,1.19a17.08,17.08,0,0,1,4.24,2.66,2.87,2.87,0,0,1,.75,1s0,0,0,0h0s0,0,0,0S549.9,253.38,549.87,253.53Z"/><path class="cls-28" d="M648.15,251.38c0,2.42,4.24,4.39,9.46,4.39s1.15-7.39,0-8.77C652.38,247,648.15,249,648.15,251.38Z"/><path class="cls-29" d="M667.42,249.53a5.7,5.7,0,0,0-.87-1.66,9.8,9.8,0,0,0-1.23-1.32,13.91,13.91,0,0,0-1.41-1c-.49-.29-1-.68-1.45-1a2.28,2.28,0,0,0-1.62-.34,4.33,4.33,0,0,0-1.14.39l-.5-.66-1.58-.06a9.25,9.25,0,0,0-6.25,1.81,11.16,11.16,0,0,0-2.39,2.57,8.49,8.49,0,0,0-.84,1.48,3.87,3.87,0,0,0-.29,1.62,3.46,3.46,0,0,0,.52,1.45,7.25,7.25,0,0,0,1,1.13,13.15,13.15,0,0,0,2.39,1.86,10.93,10.93,0,0,0,2.8,1.21,22.58,22.58,0,0,0,3,.55,5.46,5.46,0,0,0,2.07-.15,3.94,3.94,0,0,0,2.22-1.72,5.07,5.07,0,0,0,.69-2.39,8.89,8.89,0,0,0-.12-1.92c-.07-.44-.17-.86-.27-1.27a2.44,2.44,0,0,1,.31,0,10.06,10.06,0,0,1,1.19,0,7.15,7.15,0,0,1,1.08.11l1.91.88a2.12,2.12,0,0,1,.21.24h.6A2.89,2.89,0,0,0,667.42,249.53Zm-9.23,4.17a1.3,1.3,0,0,1-.67.24,31,31,0,0,1-5.18.07,6.43,6.43,0,0,1-2.56-.63,3,3,0,0,1-1-.83,1.91,1.91,0,0,1-.34-1.16,1.66,1.66,0,0,1,.58-1,2.63,2.63,0,0,1,1.14-.49,8.44,8.44,0,0,1,2.62.08,15,15,0,0,0,2.45.22h1c.11.14.23.28.33.42a8.83,8.83,0,0,1,1.12,2c.28.62.28,1.22.36,1.13S658.27,253.6,658.19,253.7Z"/><path class="cls-29" d="M640.72,240.79a25.88,25.88,0,0,1,5.16-5.42l1.48-1.15,1.53-1.1c1.06-.68,2.13-1.34,3.25-1.94s2.22-1.29,3.4-1.86a9.83,9.83,0,0,1,3.79-1,14.68,14.68,0,0,1,2,0,15,15,0,0,1,2,.35,15.75,15.75,0,0,1,2,.75,9.51,9.51,0,0,1,1.77,1.27l-.1.59a17.85,17.85,0,0,1-1.81.87c-.57.27-1.11.55-1.63.75s-1,.48-1.55.67-1,.43-1.52.61-1,.37-1.55.49-1.07.21-1.62.31-1.12.13-1.68.25a14.13,14.13,0,0,0-1.67.38c-1.1.31-2.19.68-3.28,1.07l-1.64.6-1.63.66a34.86,34.86,0,0,0-6.27,3.26Z"/><path class="cls-24" d="M522.61,226.76,561.28,237C554.61,234.32,535.61,222.21,522.61,226.76Z"/><path class="cls-29" d="M561.17,241.27c-3.37-.93-6.55-2.25-9.76-3.36-1.6-.58-3.2-1.13-4.8-1.64s-3.18-1-4.78-1.45a21.78,21.78,0,0,0-2.41-.54c-.81-.15-1.61-.29-2.41-.37a43.72,43.72,0,0,1-4.65-.91,82.09,82.09,0,0,0-9.64-1.94l-.2-.57a15.94,15.94,0,0,1,2.32-1.72,25,25,0,0,1,2.67-1.08,27.61,27.61,0,0,1,2.8-.54,26.91,26.91,0,0,1,2.82-.1,16.71,16.71,0,0,1,5.38,1.11c.86.31,1.68.68,2.5,1s1.64.71,2.44,1.09c1.62.71,3.19,1.51,4.74,2.31s3,1.71,4.52,2.6c3,1.8,5.78,3.75,8.69,5.51Z"/><path class="cls-30" d="M484,219.66c7.31,2.77,18.27-4.41,14.24-12.5s-19.34-16.59-24-7.12C470.78,207.16,474.78,216.16,484,219.66Z"/><path class="cls-25" d="M484.13,219.38a8.74,8.74,0,0,0,4.68.51,11.26,11.26,0,0,0,4.39-1.72c2.6-1.72,4.46-4.48,4.43-7.09a6.56,6.56,0,0,0-1.2-3.71,17.21,17.21,0,0,0-2.9-3.32,23.64,23.64,0,0,0-7.56-4.67,12.52,12.52,0,0,0-4-.83,5.45,5.45,0,0,0-3.16.77,3.87,3.87,0,0,0-1,.92,5.41,5.41,0,0,0-.78,1.33,8.8,8.8,0,0,0-.62,1.71,9.44,9.44,0,0,0-.35,1.8,15,15,0,0,0,1.39,7.94,12.9,12.9,0,0,0,2.71,3.74A13.51,13.51,0,0,0,484.13,219.38Zm-.21.56a26.74,26.74,0,0,1-9-4.89,14.86,14.86,0,0,1-3.47-4.42,13.08,13.08,0,0,1-1.38-5.76,13.86,13.86,0,0,1,1.32-5.94,11.05,11.05,0,0,1,1.86-2.77,9.57,9.57,0,0,1,2.85-2.07,11.19,11.19,0,0,1,6.37-.78,19.72,19.72,0,0,1,5.39,1.69,27.72,27.72,0,0,1,8.52,6.29,20.81,20.81,0,0,1,3.09,4.39,9.65,9.65,0,0,1,1.15,5.64,8.92,8.92,0,0,1-.84,2.77,10.32,10.32,0,0,1-1.62,2.26,12.9,12.9,0,0,1-4.34,2.92,16.09,16.09,0,0,1-4.9,1.2A12.32,12.32,0,0,1,483.92,219.94Z"/><path class="cls-25" d="M649.18,463.26c-1.17.11-2.46.17-3.7.2s-2.5,0-3.75,0c-.49,0-1,0-1.48-.07a26.29,26.29,0,0,0,2.6-4.5,53.85,53.85,0,0,0,3.25-10.05c.38-1.69.7-3.38,1-5.07s.5-3.39.7-5.08c.38-3.41.63-6.75.72-10.23l.22-9.28-5.43,7.42c-1.59,2.16-3.42,4.37-5.27,6.44a76.1,76.1,0,0,1-5.89,5.92,47.39,47.39,0,0,1-6.5,5c-.44.28-.89.53-1.34.79a36.72,36.72,0,0,0,1.36-4.53,78.42,78.42,0,0,0,1.6-11c.29-3.67.43-7.33.45-11s0-7.29-.27-11l-.28-4.53-2.39,3.83a99.77,99.77,0,0,1-7.16,9.94,107.18,107.18,0,0,1-8.31,9.09,83.41,83.41,0,0,1-9.45,7.9,63.7,63.7,0,0,1-10.69,6.14l.22.56a64.62,64.62,0,0,0,11.16-5.67,83.48,83.48,0,0,0,10-7.61,109.26,109.26,0,0,0,8.87-8.89c1.8-2,3.51-4.11,5.16-6.27,0,2.13,0,4.27-.14,6.4-.15,3.58-.4,7.16-.81,10.7a74.72,74.72,0,0,1-1.87,10.4A30.43,30.43,0,0,1,620,444a10.59,10.59,0,0,1-2.52,3.63l-6.75,5.62,8.62-1.78a29.31,29.31,0,0,0,8.68-3.5,54.2,54.2,0,0,0,7.35-5.23,82.3,82.3,0,0,0,6.38-5.89c0,.35-.08.7-.13,1-.44,3.23-1,6.43-1.65,9.57a56.64,56.64,0,0,1-2.63,9,20.11,20.11,0,0,1-2,3.86,7.48,7.48,0,0,1-2.53,2.47l-7.78,4,8.45,1.12a47.3,47.3,0,0,0,8.22.31c1.35-.06,2.7-.15,4-.3l.84-.11c-.3.91-.62,1.83-1,2.72a33.34,33.34,0,0,1-2.7,5.53,23,23,0,0,1-3.8,4.78,16,16,0,0,1-5.27,3.19l.13.59a15.64,15.64,0,0,0,6.22-2.39,23.73,23.73,0,0,0,4.93-4.6,34.88,34.88,0,0,0,3.67-5.63,33.43,33.43,0,0,0,1.45-3c.45-1,.84-2,1.21-3.21l.91-2.88Z"/><path class="cls-24" d="M557.71,299.49a8.12,8.12,0,0,0-3,3.65,20.11,20.11,0,0,0-1.51,4.65,47.71,47.71,0,0,0-.9,9.84,97.18,97.18,0,0,0,2.23,19.69,93,93,0,0,0,6,18.82c2.71,6,6.17,11.6,11.44,15.35a48.08,48.08,0,0,0,17.5,8,46.1,46.1,0,0,0,9.54,1.28,30.4,30.4,0,0,0,9.31-1.19,18.94,18.94,0,0,0,4.11-1.88,13,13,0,0,0,3.25-2.89,11.83,11.83,0,0,0,2-3.79,15.37,15.37,0,0,0,.54-2.13c.1-.76.17-1.44.24-2.27a62,62,0,0,1,1.41-10.23,41.6,41.6,0,0,1,1.49-5.05c.32-.83.65-1.66,1.06-2.49.19-.41.41-.82.64-1.23l.37-.62c.14-.22.24-.39.48-.7l.2-.26.4-.25a24.75,24.75,0,0,0,4.31-3.48,10.21,10.21,0,0,0,2.68-4.12,1.88,1.88,0,0,0,.1-.49,2,2,0,0,0,.05-.47,4,4,0,0,0-.1-.95,3,3,0,0,0-.75-1.55,3.12,3.12,0,0,0-1.52-.79,5.6,5.6,0,0,0-1.05-.15c-.19,0-.37,0-.56,0s-.41,0-.46,0l-2,.23-.66-1.84c-3.51-9.68-6.81-19.38-9.95-29.18-1.56-4.9-3.1-9.81-4.46-14.79s-2.69-10-3.77-15.08l-.4-1.92c-.12-.65-.19-1.35-.29-2a35.75,35.75,0,0,1-.43-4.07c0-1.35-.13-2.71-.13-4l.17-4a107,107,0,0,1,2.4-15.61c1.18-5.09,2.62-10.1,4.25-15s3.49-9.74,5.61-14.56l1.36,3.13-12.59-4.92-12.57-5c-4.19-1.66-8.35-3.4-12.53-5.11s-8.34-3.42-12.49-5.2l.2-.56c4.33,1.27,8.64,2.6,12.94,3.95s8.62,2.65,12.91,4l12.87,4.16,12.84,4.23,2.29.75-.93,2.38c-1.8,4.64-3.39,9.49-4.8,14.32s-2.68,9.72-3.67,14.63a116,116,0,0,0-1.95,14.76l-.1,3.67c0,1.22.09,2.41.13,3.62a29.94,29.94,0,0,0,.38,3.55c.09.59.14,1.17.25,1.77l.37,1.84c1,4.92,2.16,9.85,3.46,14.76s2.63,9.82,4.06,14.71c2.82,9.79,5.92,19.54,9.16,29.19l-2.66-1.6a8.84,8.84,0,0,1,1.07-.07c.33,0,.65,0,1,0a10.4,10.4,0,0,1,2,.34,7.9,7.9,0,0,1,3.74,2.18,7.73,7.73,0,0,1,1.89,3.88,8.68,8.68,0,0,1,.16,2.09,5.93,5.93,0,0,1-.13,1,5.5,5.5,0,0,1-.23,1,14.57,14.57,0,0,1-3.93,6,26,26,0,0,1-2.52,2.19,28.82,28.82,0,0,1-2.76,1.89l.6-.52-.23.33-.28.44c-.18.32-.36.64-.53,1-.34.67-.65,1.38-.94,2.1a37.42,37.42,0,0,0-1.42,4.5,57.94,57.94,0,0,0-1.5,9.52,17.83,17.83,0,0,1-3.84,10.31,16.77,16.77,0,0,1-4.26,3.64,22.55,22.55,0,0,1-5,2.17c-6.95,1.93-14,1.27-20.67-.42a49.72,49.72,0,0,1-18.4-8.95,36.74,36.74,0,0,1-3.83-3.5c-.57-.65-1.16-1.31-1.69-2s-1.06-1.37-1.51-2.1a53.88,53.88,0,0,1-4.75-9,94.88,94.88,0,0,1-5.6-19.37,98.55,98.55,0,0,1-1.73-20,48.68,48.68,0,0,1,1.19-10,20.89,20.89,0,0,1,1.7-4.79,8.76,8.76,0,0,1,3.38-3.84Z"/><path class="cls-29" d="M560.71,302.49a8.12,8.12,0,0,0-3,3.65,20.11,20.11,0,0,0-1.51,4.65,47.71,47.71,0,0,0-.9,9.84,97.18,97.18,0,0,0,2.23,19.69,93,93,0,0,0,6,18.82c2.71,6,6.17,11.6,11.44,15.35a48.08,48.08,0,0,0,17.5,8,46.1,46.1,0,0,0,9.54,1.28,30.4,30.4,0,0,0,9.31-1.19,18.94,18.94,0,0,0,4.11-1.88,13,13,0,0,0,3.25-2.89,11.83,11.83,0,0,0,2-3.79,15.37,15.37,0,0,0,.54-2.13c.1-.76.17-1.44.24-2.27a62,62,0,0,1,1.41-10.23,41.6,41.6,0,0,1,1.49-5.05c.32-.83.65-1.66,1.06-2.49.19-.41.41-.82.64-1.23l.37-.62c.14-.22.24-.39.48-.7l.2-.26.4-.25a24.75,24.75,0,0,0,4.31-3.48,10.21,10.21,0,0,0,2.68-4.12,1.88,1.88,0,0,0,.1-.49,2,2,0,0,0,.05-.47,4,4,0,0,0-.1-.95,3,3,0,0,0-.75-1.55,3.12,3.12,0,0,0-1.52-.79,5.6,5.6,0,0,0-1.05-.15c-.19,0-.37,0-.56,0s-.41,0-.46,0l-2,.23-.66-1.84c-3.51-9.68-6.81-19.38-9.95-29.18-1.56-4.9-3.1-9.81-4.46-14.79s-2.69-10-3.77-15.08l-.4-1.92c-.12-.65-.19-1.35-.29-2a35.75,35.75,0,0,1-.43-4.07c0-1.35-.13-2.71-.13-4l.17-4a107,107,0,0,1,2.4-15.61c1.18-5.09,2.62-10.1,4.25-15s3.49-9.74,5.61-14.56l1.36,3.13-12.59-4.92-12.57-5c-4.19-1.66-8.35-3.4-12.53-5.11s-8.34-3.42-12.49-5.2l.2-.56c4.33,1.27,8.64,2.6,12.94,3.95s8.62,2.65,12.91,4l12.87,4.16,12.84,4.23,2.29.75-.93,2.38c-1.8,4.64-3.39,9.49-4.8,14.32s-2.68,9.72-3.67,14.63a116,116,0,0,0-1.95,14.76l-.1,3.67c0,1.22.09,2.41.13,3.62a29.94,29.94,0,0,0,.38,3.55c.09.59.14,1.17.25,1.77l.37,1.84c1,4.92,2.16,9.85,3.46,14.76s2.63,9.82,4.06,14.71c2.82,9.79,5.92,19.54,9.16,29.19l-2.66-1.6a8.84,8.84,0,0,1,1.07-.07c.33,0,.65,0,1,0a10.4,10.4,0,0,1,2,.34,7.9,7.9,0,0,1,3.74,2.18,7.73,7.73,0,0,1,1.89,3.88,8.68,8.68,0,0,1,.16,2.09,5.93,5.93,0,0,1-.13,1,5.5,5.5,0,0,1-.23,1,14.57,14.57,0,0,1-3.93,6,26,26,0,0,1-2.52,2.19,28.82,28.82,0,0,1-2.76,1.89l.6-.52-.23.33-.28.44c-.18.32-.36.64-.53,1-.34.67-.65,1.38-.94,2.1a37.42,37.42,0,0,0-1.42,4.5,57.94,57.94,0,0,0-1.5,9.52,17.83,17.83,0,0,1-3.84,10.31,16.77,16.77,0,0,1-4.26,3.64,22.55,22.55,0,0,1-5,2.17c-6.95,1.93-14,1.27-20.67-.42a49.72,49.72,0,0,1-18.4-8.95,36.74,36.74,0,0,1-3.83-3.5c-.57-.65-1.16-1.31-1.69-2s-1.06-1.37-1.51-2.1a53.88,53.88,0,0,1-4.75-9,94.88,94.88,0,0,1-5.6-19.37,98.55,98.55,0,0,1-1.73-20,48.68,48.68,0,0,1,1.19-10,20.89,20.89,0,0,1,1.7-4.79,8.76,8.76,0,0,1,3.38-3.84Z"/><path class="cls-31" d="M623,341.2a1.08,1.08,0,0,1,1,0,2,2,0,0,1,.8.7,2.37,2.37,0,0,1,.36,1.06,2.29,2.29,0,0,1-.32,1.28,4,4,0,0,1-.78,1,1.54,1.54,0,0,1-1.1.39,1.82,1.82,0,0,1-1-.38,1.85,1.85,0,0,1-.69-1l.07-.29c.63-.69.92-1,1.11-1.27s.15-.12.24-.06a.52.52,0,0,0,.31.11c.09.12.34,0,.41-.35a.7.7,0,0,0-.32-.9Z"/><path class="cls-3" d="M540.64,251.34a3.74,3.74,0,0,0-1,2.5c.13.19,1.44.67,1.5-.29A5.66,5.66,0,0,0,540.64,251.34Z"/><path class="cls-3" d="M545.09,252.47a10.12,10.12,0,0,1-2.69,2.88,2.84,2.84,0,0,0,2.69,0C546.59,254.59,545.09,252.47,545.09,252.47Z"/><path class="cls-3" d="M652.52,251.38a4.15,4.15,0,0,1-1.87.66s-.31-.31.44-.66A1.76,1.76,0,0,1,652.52,251.38Z"/><path class="cls-3" d="M655.16,252.28c-.57.63-1.88,1-1.7,1.06s1.63.56,2.25,0S655.16,252.28,655.16,252.28Z"/><path class="cls-25" d="M708.87,283.73a21.63,21.63,0,0,0-1.72-6.8,23.58,23.58,0,0,0-3.8-5.84,55.56,55.56,0,0,0-4.71-4.61c-3.17-2.82-6.21-5.48-8.36-8.72a25.23,25.23,0,0,1-4-10.86c-.54-3.59.61-7.48,2.24-11.15a82,82,0,0,1,6-10.75l6.94-10.57a58.16,58.16,0,0,0,6.09-11.56c.17-.55.37-1.08.5-1.65l.21-.85.14-.88a13.49,13.49,0,0,0,.16-1.82,4.68,4.68,0,0,0-.17-1.29,6.05,6.05,0,0,0-.4-1,14.41,14.41,0,0,0-2.06-3,32.83,32.83,0,0,0-2.32-2.41,64.42,64.42,0,0,0-10.39-7.8,62.8,62.8,0,0,0-11.68-5.66,32.41,32.41,0,0,0-13.06-2.14c-.57.07-1.14.13-1.71.21A14.55,14.55,0,0,0,665,175a14.94,14.94,0,0,0-3.21,1.41,25.75,25.75,0,0,0-5.26,4.18c-3.09,3.1-5.63,6.49-8.44,9.49a27.12,27.12,0,0,1-4.46,4,10.79,10.79,0,0,1-5.16,2,8,8,0,0,1-2.73-.2c-1-.22-2.05-.48-3.12-.68a64.6,64.6,0,0,0-6.41-.83,220.78,220.78,0,0,0-25.43-.17c-16.87.76-33.69,2-50.52,3.12L525,198.94c-4.21.27-8.41.51-12.62.71l-3.15.1c-.53,0-1,0-1.54,0a3,3,0,0,1-1.42-.35,24.06,24.06,0,0,1-5-3.68c-1.58-1.39-3.11-2.83-4.71-4.22a23.16,23.16,0,0,0-5.21-3.7,4.27,4.27,0,0,0-1.63-.39c-.55,0-1.07.06-1.6.11-1.06.11-2.1.28-3.15.46q-3.13.56-6.19,1.42a41.11,41.11,0,0,0-11.65,5,15.49,15.49,0,0,0-4.56,4.49,9.23,9.23,0,0,0-1.36,6.24,42.43,42.43,0,0,0,1.34,6.22c.6,2,1.37,4,2.12,6a44.69,44.69,0,0,1,1.94,6,28.38,28.38,0,0,1,.53,3.07l.08.77c0,.12,0,.27,0,.37a1.94,1.94,0,0,1,0,.29,9.43,9.43,0,0,1-.46,1.42c-.76,1.93-1.7,3.82-2.64,5.7l-2.88,5.62-5.86,11.21c-1.93,3.75-3.89,7.49-5.75,11.29q-1.4,2.85-2.73,5.73l-1.3,2.91c-.21.49-.42,1-.62,1.48l-.56,1.6a38.35,38.35,0,0,0-.92,13,94.23,94.23,0,0,0,2,12.7,149.14,149.14,0,0,0,7.77,24.38,120.92,120.92,0,0,0,5.53,11.63c1,1.9,2.14,3.77,3.36,5.59a37.54,37.54,0,0,0,4.15,5.3,22.25,22.25,0,0,0,5.89,4.08,56.17,56.17,0,0,0,6.15,2.52,113.94,113.94,0,0,0,12.47,3.47c7.33,1.62,14.69,2.79,22.07,3.77-.13.13-.27.25-.4.39a77.1,77.1,0,0,0-10.95,19.65A105.12,105.12,0,0,0,495.69,403q-.44,2.79-.69,5.6c-.18,1.87-.3,3.75-.33,5.64a46.81,46.81,0,0,0,.22,5.66c.08.94.28,1.89.36,2.78s.11,1.84.12,2.77c0,3.73-.17,7.47-.33,11.22l-.49,11.24c-.63,15-.83,30,.44,45.07a177.61,177.61,0,0,0,3.27,22.4A100.93,100.93,0,0,0,505.32,537a63.86,63.86,0,0,0,5.77,10,52.86,52.86,0,0,0,3.6,4.54c1.28,1.43,2.71,2.84,4.08,4.08,5.5,5.11,11,10.23,17.09,14.87a75.94,75.94,0,0,0,9.6,6.35,47.72,47.72,0,0,0,10.82,4.36c7.61,2,15.54,1.8,23.08.76A173.68,173.68,0,0,0,601.57,577c7.27-2,14.44-4.31,21.59-6.65a107.77,107.77,0,0,0,21-9.11,99,99,0,0,0,18.51-13.66,111.18,111.18,0,0,0,25.9-37.69,153.79,153.79,0,0,0,11.31-44.26,149.67,149.67,0,0,0-2-45.68,129.82,129.82,0,0,0-6.46-22.08,98.14,98.14,0,0,0-10.85-20.42,82.34,82.34,0,0,0-15.76-17,78.49,78.49,0,0,0-7.33-5.24c3.45-1,6.86-2.18,10.23-3.5a100.1,100.1,0,0,0,11.74-5.53c1.89-1,3.75-2.16,5.55-3.29.46-.29.88-.53,1.41-.91a14.77,14.77,0,0,0,1.45-1.09,25.18,25.18,0,0,0,2.54-2.41,52.88,52.88,0,0,0,7.49-10.95,96.16,96.16,0,0,0,5.25-11.86,107.83,107.83,0,0,0,3.74-12.38,80.55,80.55,0,0,0,2-12.86A43.74,43.74,0,0,0,708.87,283.73Zm-4.55,6.36A89.75,89.75,0,0,1,698.63,314a91.33,91.33,0,0,1-5.11,11.19,48.11,48.11,0,0,1-6.84,9.81,20.12,20.12,0,0,1-2.07,1.92,10,10,0,0,1-1.08.79c-.33.24-.83.52-1.26.79-1.78,1.09-3.55,2.12-5.36,3.1a94.77,94.77,0,0,1-11.18,5.11,134.91,134.91,0,0,1-18.88,5.52c1.32.63,1.46,2.55.21,2.83a74.89,74.89,0,0,1,14.28,9.56,80,80,0,0,1,14.39,16.17c8.1,12.05,13.26,26,16.07,40.4a154.08,154.08,0,0,1-8.29,86.59A106,106,0,0,1,659.29,544a92.44,92.44,0,0,1-17.46,13.19,103.19,103.19,0,0,1-20.09,8.94c-7.08,2.4-14.19,4.73-21.34,6.81A169.83,169.83,0,0,1,578.79,578c-7.25,1.07-14.62,1.32-21.58-.45s-13.35-5.46-19.23-9.88-11.46-9.44-17-14.47a53.81,53.81,0,0,1-12.93-17.48,100.78,100.78,0,0,1-7.2-20.92,175.16,175.16,0,0,1-3.61-22,360.1,360.1,0,0,1-1.46-44.82l.3-11.24c.09-3.75.22-7.5.14-11.27,0-.94-.07-1.89-.17-2.84s-.31-1.86-.41-2.79a46.09,46.09,0,0,1-.3-5.57,74.34,74.34,0,0,1,.91-11.15A101.12,101.12,0,0,1,502,381.44,76.55,76.55,0,0,1,513,362a15,15,0,0,1,4.53-3l.29-.13-.63-.07a59.36,59.36,0,0,1,5.61-2.44q-3-.3-6-.63c-8.31-.91-16.6-2.05-24.73-3.72a121.94,121.94,0,0,1-12-3,51.15,51.15,0,0,1-5.6-2.12,17.52,17.52,0,0,1-4.57-2.93,36,36,0,0,1-3.76-4.54c-1.19-1.63-2.29-3.36-3.34-5.13a116.64,116.64,0,0,1-5.72-11,145.53,145.53,0,0,1-8.42-23.48,91.31,91.31,0,0,1-2.32-12.21,36,36,0,0,1,.4-12.12l.44-1.4c.17-.48.37-1,.55-1.46l1.18-2.91c.81-1.93,1.65-3.86,2.51-5.77q2.6-5.74,5.37-11.42l5.59-11.34c1.84-3.8,3.74-7.55,5.33-11.52a10.1,10.1,0,0,0,.49-1.59,2.63,2.63,0,0,0,0-.5c0-.16,0-.27,0-.41l-.09-.8a29.24,29.24,0,0,0-.59-3.15,45.45,45.45,0,0,0-2-6c-.78-2-1.57-3.9-2.18-5.9a41.78,41.78,0,0,1-1.4-6.11,8.64,8.64,0,0,1,1.26-5.85,14.94,14.94,0,0,1,4.38-4.33,40.6,40.6,0,0,1,11.47-5,59.69,59.69,0,0,1,6.14-1.4c1-.18,2.07-.34,3.11-.44.52-.05,1-.1,1.55-.1a3.76,3.76,0,0,1,1.42.35,22.77,22.77,0,0,1,5,3.63c1.58,1.39,3.11,2.83,4.69,4.24A25.88,25.88,0,0,0,506,200a3.59,3.59,0,0,0,1.61.42c.54,0,1.1.07,1.62.05l3.17-.06c4.22-.14,8.43-.32,12.64-.53l25.26-1.3c16.84-.82,33.69-1.68,50.52-2.14a218.62,218.62,0,0,1,25.12.54c2.07.21,4.11.48,6.11.89,1,.21,2,.46,3.05.71a10.85,10.85,0,0,0,3.54.3,13.64,13.64,0,0,0,6.56-2.37,30,30,0,0,0,5-4.34c3-3.14,5.54-6.49,8.44-9.34a22.69,22.69,0,0,1,4.64-3.64,11.76,11.76,0,0,1,2.57-1.11,11.37,11.37,0,0,1,1.33-.31l1.43-.16a29.26,29.26,0,0,1,11.7,2.06,59.44,59.44,0,0,1,11,5.45,61,61,0,0,1,9.74,7.44,29.32,29.32,0,0,1,2,2.16,11.13,11.13,0,0,1,1.52,2.21,2.51,2.51,0,0,1,.18.44c0,.08,0,.08,0,.11s0,0,0,.16a9.85,9.85,0,0,1-.13,1.32l-.11.67-.18.68c-.1.46-.28.91-.42,1.37a55,55,0,0,1-5.8,10.71l-7,10.51a85.72,85.72,0,0,0-6.42,11.24,34.46,34.46,0,0,0-2.23,6.33,19.23,19.23,0,0,0-.43,7,29.45,29.45,0,0,0,4.6,12.67c2.51,3.83,5.89,6.8,9,9.59A51.54,51.54,0,0,1,700,274a19.14,19.14,0,0,1,3,4.74,17.13,17.13,0,0,1,1.31,5.41A39.49,39.49,0,0,1,704.32,290.08Z"/><path class="cls-32" d="M662,212.07c-30.08-17,6.22-43.84,25-24.38C692.63,193.54,674.12,218.91,662,212.07Z"/><path class="cls-33" d="M494,219.66c7.31,2.77,18.27-4.41,14.24-12.5s-19.34-16.59-24-7.12C480.78,207.16,484.78,216.16,494,219.66Z"/><path class="cls-24" d="M708.87,283.73a21.63,21.63,0,0,0-1.72-6.8,23.58,23.58,0,0,0-3.8-5.84,55.56,55.56,0,0,0-4.71-4.61c-3.17-2.82-6.21-5.48-8.36-8.72a25.23,25.23,0,0,1-4-10.86c-.54-3.59.61-7.48,2.24-11.15a82,82,0,0,1,6-10.75l6.94-10.57a58.16,58.16,0,0,0,6.09-11.56c.17-.55.37-1.08.5-1.65l.21-.85.14-.88a13.49,13.49,0,0,0,.16-1.82,4.68,4.68,0,0,0-.17-1.29,6.05,6.05,0,0,0-.4-1,14.41,14.41,0,0,0-2.06-3,32.83,32.83,0,0,0-2.32-2.41,64.42,64.42,0,0,0-10.39-7.8,62.8,62.8,0,0,0-11.68-5.66,32.41,32.41,0,0,0-13.06-2.14c-.57.07-1.14.13-1.71.21A14.55,14.55,0,0,0,665,175a14.94,14.94,0,0,0-3.21,1.41,25.75,25.75,0,0,0-5.26,4.18c-3.09,3.1-5.63,6.49-8.44,9.49a27.12,27.12,0,0,1-4.46,4,10.79,10.79,0,0,1-5.16,2,8,8,0,0,1-2.73-.2c-1-.22-2.05-.48-3.12-.68a64.6,64.6,0,0,0-6.41-.83,220.78,220.78,0,0,0-25.43-.17c-16.87.76-33.69,2-50.52,3.12L525,198.94c-4.21.27-8.41.51-12.62.71l-3.15.1c-.53,0-1,0-1.54,0a3,3,0,0,1-1.42-.35,24.06,24.06,0,0,1-5-3.68c-1.58-1.39-3.11-2.83-4.71-4.22a23.16,23.16,0,0,0-5.21-3.7,4.27,4.27,0,0,0-1.63-.39c-.55,0-1.07.06-1.6.11-1.06.11-2.1.28-3.15.46q-3.13.56-6.19,1.42a41.11,41.11,0,0,0-11.65,5,15.49,15.49,0,0,0-4.56,4.49,9.23,9.23,0,0,0-1.36,6.24,42.43,42.43,0,0,0,1.34,6.22c.6,2,1.37,4,2.12,6a44.69,44.69,0,0,1,1.94,6,28.38,28.38,0,0,1,.53,3.07l.08.77c0,.12,0,.27,0,.37a1.94,1.94,0,0,1,0,.29,9.43,9.43,0,0,1-.46,1.42c-.76,1.93-1.7,3.82-2.64,5.7l-2.88,5.62-5.86,11.21c-1.93,3.75-3.89,7.49-5.75,11.29q-1.4,2.85-2.73,5.73l-1.3,2.91c-.21.49-.42,1-.62,1.48l-.56,1.6a38.35,38.35,0,0,0-.92,13,94.23,94.23,0,0,0,2,12.7,149.14,149.14,0,0,0,7.77,24.38,120.92,120.92,0,0,0,5.53,11.63c1,1.9,2.14,3.77,3.36,5.59a37.54,37.54,0,0,0,4.15,5.3,22.25,22.25,0,0,0,5.89,4.08,56.17,56.17,0,0,0,6.15,2.52,113.94,113.94,0,0,0,12.47,3.47c7.33,1.62,14.69,2.79,22.07,3.77-.13.13-.27.25-.4.39a77.1,77.1,0,0,0-10.95,19.65A105.12,105.12,0,0,0,495.69,403q-.44,2.79-.69,5.6c-.18,1.87-.3,3.75-.33,5.64a46.81,46.81,0,0,0,.22,5.66c.08.94.28,1.89.36,2.78s.11,1.84.12,2.77c0,3.73-.17,7.47-.33,11.22l-.49,11.24c-.63,15-.83,30,.44,45.07a177.61,177.61,0,0,0,3.27,22.4A100.93,100.93,0,0,0,505.32,537a63.86,63.86,0,0,0,5.77,10,52.86,52.86,0,0,0,3.6,4.54c1.28,1.43,2.71,2.84,4.08,4.08,5.5,5.11,11,10.23,17.09,14.87a75.94,75.94,0,0,0,9.6,6.35,47.72,47.72,0,0,0,10.82,4.36c7.61,2,15.54,1.8,23.08.76A173.68,173.68,0,0,0,601.57,577c7.27-2,14.44-4.31,21.59-6.65a107.77,107.77,0,0,0,21-9.11,99,99,0,0,0,18.51-13.66,111.18,111.18,0,0,0,25.9-37.69,153.79,153.79,0,0,0,11.31-44.26,149.67,149.67,0,0,0-2-45.68,129.82,129.82,0,0,0-6.46-22.08,98.14,98.14,0,0,0-10.85-20.42,82.34,82.34,0,0,0-15.76-17,78.49,78.49,0,0,0-7.33-5.24c3.45-1,6.86-2.18,10.23-3.5a100.1,100.1,0,0,0,11.74-5.53c1.89-1,3.75-2.16,5.55-3.29.46-.29.88-.53,1.41-.91a14.77,14.77,0,0,0,1.45-1.09,25.18,25.18,0,0,0,2.54-2.41,52.88,52.88,0,0,0,7.49-10.95,96.16,96.16,0,0,0,5.25-11.86,107.83,107.83,0,0,0,3.74-12.38,80.55,80.55,0,0,0,2-12.86A43.74,43.74,0,0,0,708.87,283.73Zm-4.55,6.36A89.75,89.75,0,0,1,698.63,314a91.33,91.33,0,0,1-5.11,11.19,48.11,48.11,0,0,1-6.84,9.81,20.12,20.12,0,0,1-2.07,1.92,10,10,0,0,1-1.08.79c-.33.24-.83.52-1.26.79-1.78,1.09-3.55,2.12-5.36,3.1a94.77,94.77,0,0,1-11.18,5.11,134.91,134.91,0,0,1-18.88,5.52c1.32.63,1.46,2.55.21,2.83a74.89,74.89,0,0,1,14.28,9.56,80,80,0,0,1,14.39,16.17c8.1,12.05,13.26,26,16.07,40.4a154.08,154.08,0,0,1-8.29,86.59A106,106,0,0,1,659.29,544a92.44,92.44,0,0,1-17.46,13.19,103.19,103.19,0,0,1-20.09,8.94c-7.08,2.4-14.19,4.73-21.34,6.81A169.83,169.83,0,0,1,578.79,578c-7.25,1.07-14.62,1.32-21.58-.45s-13.35-5.46-19.23-9.88-11.46-9.44-17-14.47a53.81,53.81,0,0,1-12.93-17.48,100.78,100.78,0,0,1-7.2-20.92,175.16,175.16,0,0,1-3.61-22,360.1,360.1,0,0,1-1.46-44.82l.3-11.24c.09-3.75.22-7.5.14-11.27,0-.94-.07-1.89-.17-2.84s-.31-1.86-.41-2.79a46.09,46.09,0,0,1-.3-5.57,74.34,74.34,0,0,1,.91-11.15A101.12,101.12,0,0,1,502,381.44,76.55,76.55,0,0,1,513,362a15,15,0,0,1,4.53-3l.29-.13-.63-.07a59.36,59.36,0,0,1,5.61-2.44q-3-.3-6-.63c-8.31-.91-16.6-2.05-24.73-3.72a121.94,121.94,0,0,1-12-3,51.15,51.15,0,0,1-5.6-2.12,17.52,17.52,0,0,1-4.57-2.93,36,36,0,0,1-3.76-4.54c-1.19-1.63-2.29-3.36-3.34-5.13a116.64,116.64,0,0,1-5.72-11,145.53,145.53,0,0,1-8.42-23.48,91.31,91.31,0,0,1-2.32-12.21,36,36,0,0,1,.4-12.12l.44-1.4c.17-.48.37-1,.55-1.46l1.18-2.91c.81-1.93,1.65-3.86,2.51-5.77q2.6-5.74,5.37-11.42l5.59-11.34c1.84-3.8,3.74-7.55,5.33-11.52a10.1,10.1,0,0,0,.49-1.59,2.63,2.63,0,0,0,0-.5c0-.16,0-.27,0-.41l-.09-.8a29.24,29.24,0,0,0-.59-3.15,45.45,45.45,0,0,0-2-6c-.78-2-1.57-3.9-2.18-5.9a41.78,41.78,0,0,1-1.4-6.11,8.64,8.64,0,0,1,1.26-5.85,14.94,14.94,0,0,1,4.38-4.33,40.6,40.6,0,0,1,11.47-5,59.69,59.69,0,0,1,6.14-1.4c1-.18,2.07-.34,3.11-.44.52-.05,1-.1,1.55-.1a3.76,3.76,0,0,1,1.42.35,22.77,22.77,0,0,1,5,3.63c1.58,1.39,3.11,2.83,4.69,4.24A25.88,25.88,0,0,0,506,200a3.59,3.59,0,0,0,1.61.42c.54,0,1.1.07,1.62.05l3.17-.06c4.22-.14,8.43-.32,12.64-.53l25.26-1.3c16.84-.82,33.69-1.68,50.52-2.14a218.62,218.62,0,0,1,25.12.54c2.07.21,4.11.48,6.11.89,1,.21,2,.46,3.05.71a10.85,10.85,0,0,0,3.54.3,13.64,13.64,0,0,0,6.56-2.37,30,30,0,0,0,5-4.34c3-3.14,5.54-6.49,8.44-9.34a22.69,22.69,0,0,1,4.64-3.64,11.76,11.76,0,0,1,2.57-1.11,11.37,11.37,0,0,1,1.33-.31l1.43-.16a29.26,29.26,0,0,1,11.7,2.06,59.44,59.44,0,0,1,11,5.45,61,61,0,0,1,9.74,7.44,29.32,29.32,0,0,1,2,2.16,11.13,11.13,0,0,1,1.52,2.21,2.51,2.51,0,0,1,.18.44c0,.08,0,.08,0,.11s0,0,0,.16a9.85,9.85,0,0,1-.13,1.32l-.11.67-.18.68c-.1.46-.28.91-.42,1.37a55,55,0,0,1-5.8,10.71l-7,10.51a85.72,85.72,0,0,0-6.42,11.24,34.46,34.46,0,0,0-2.23,6.33,19.23,19.23,0,0,0-.43,7,29.45,29.45,0,0,0,4.6,12.67c2.51,3.83,5.89,6.8,9,9.59A51.54,51.54,0,0,1,700,274a19.14,19.14,0,0,1,3,4.74,17.13,17.13,0,0,1,1.31,5.41A39.49,39.49,0,0,1,704.32,290.08Z"/><path class="cls-22" d="M462.76,368.08c-15.15,44-45.82,21.91-71.8,61.12-14.36,21.66-16.9,68.56,27.32,88.13,34.67,15.33,74.42,16.75,90.67,4.67,25.05-18.63,42.76-66.13,5.59-86-12.47-6.67-75.59,9.88-47.59-23.94"/><path class="cls-25" d="M465,368.08c-1.59,4.69.21,7.07-2.39,11.33S451,389.81,447,392.89a49.05,49.05,0,0,1-6.33,4c-2.22,1.15-4.48,2.2-6.78,3.14-4.59,1.89-9.25,3.52-13.71,5.53a63.89,63.89,0,0,0-12.62,7.28,59.47,59.47,0,0,0-10.45,10.06c-1.52,1.89-3,3.83-4.33,5.86a43.4,43.4,0,0,0-3.61,6.24,58.89,58.89,0,0,0-4.56,13.69,64.12,64.12,0,0,0-1.37,14.37,59.69,59.69,0,0,0,1.89,14.26,54,54,0,0,0,14,24.64,59.1,59.1,0,0,0,11.26,8.81,83.28,83.28,0,0,0,13,6.3,152.3,152.3,0,0,0,28,8.07,125.17,125.17,0,0,0,28.89,2.12c2.4-.1,4.78-.37,7.15-.67s4.69-.78,7-1.35a36.42,36.42,0,0,0,12.48-5.45,59.56,59.56,0,0,0,10.15-9.7,71.07,71.07,0,0,0,8-11.72,69.16,69.16,0,0,0,5.52-13,51.26,51.26,0,0,0,2.35-13.75,37.14,37.14,0,0,0-1.89-13.55,33.9,33.9,0,0,0-6.9-11.7c-.82-.81-1.59-1.66-2.45-2.44s-1.73-1.54-2.67-2.23-1.86-1.4-2.87-2l-1.51-.91-.75-.46-.38-.23-.29-.14a11.9,11.9,0,0,0-2.94-.88c-1.1-.21-2.26-.35-3.44-.46-2.36-.22-4.79-.3-7.23-.35-4.89-.09-9.84,0-14.81-.1a88.46,88.46,0,0,1-15-1.29,20.39,20.39,0,0,1-7.34-2.79,8.12,8.12,0,0,1-2.78-3.17,7.53,7.53,0,0,1-.52-4.14,18.13,18.13,0,0,1,3-7.07,51.5,51.5,0,0,1,4.64-5.86l.46.38a50.6,50.6,0,0,0-4.05,6.12,16.88,16.88,0,0,0-2.35,6.61,5.67,5.67,0,0,0,.57,3.08,6,6,0,0,0,2.22,2.17,18.13,18.13,0,0,0,6.59,2,87.43,87.43,0,0,0,14.52.44c4.9-.16,9.83-.44,14.81-.58,2.5-.06,5-.09,7.57,0a36.93,36.93,0,0,1,3.91.38,16.42,16.42,0,0,1,4.16,1.13l.55.26.42.24.85.48,1.69,1c1.13.64,2.18,1.42,3.27,2.14s2.06,1.61,3.1,2.41,1.92,1.8,2.89,2.7a38.7,38.7,0,0,1,8.37,13.43,43,43,0,0,1,2.55,15.57c-.16,10.54-3.49,20.63-8.39,29.63a73.82,73.82,0,0,1-8.77,12.66,65.42,65.42,0,0,1-11.35,10.58,42,42,0,0,1-14.62,6.09c-2.52.58-5.06,1-7.6,1.3s-5.08.49-7.61.56a130.16,130.16,0,0,1-30-2.73,156.85,156.85,0,0,1-28.72-8.76,87.57,87.57,0,0,1-13.53-6.82,63.11,63.11,0,0,1-11.87-9.58A57.64,57.64,0,0,1,381.8,478.2,63,63,0,0,1,380,463.13a67.23,67.23,0,0,1,1.67-15,61.72,61.72,0,0,1,5.07-14.25,46,46,0,0,1,3.93-6.49c1.42-2.06,3-4,4.59-6a61.73,61.73,0,0,1,11.05-10.21A65.84,65.84,0,0,1,419.47,404c4.59-2,9.3-3.5,13.87-5.28q3.44-1.33,6.72-2.94a47.78,47.78,0,0,0,6.23-3.8,40.42,40.42,0,0,0,9.86-10.68A66.75,66.75,0,0,0,462.48,368Z"/><path class="cls-24" d="M462,369.08c-1.59,4.69.21,7.07-2.39,11.33S448,390.81,444,393.89a49.05,49.05,0,0,1-6.33,4c-2.22,1.15-4.48,2.2-6.78,3.14-4.59,1.89-9.25,3.52-13.71,5.53a63.89,63.89,0,0,0-12.62,7.28,59.47,59.47,0,0,0-10.45,10.06c-1.52,1.89-3,3.83-4.33,5.86a43.4,43.4,0,0,0-3.61,6.24,58.89,58.89,0,0,0-4.56,13.69,64.12,64.12,0,0,0-1.37,14.37,59.69,59.69,0,0,0,1.89,14.26,54,54,0,0,0,14,24.64,59.1,59.1,0,0,0,11.26,8.81,83.28,83.28,0,0,0,13,6.3,152.3,152.3,0,0,0,28,8.07,125.17,125.17,0,0,0,28.89,2.12c2.4-.1,4.78-.37,7.15-.67s4.69-.78,7-1.35a36.42,36.42,0,0,0,12.48-5.45,59.56,59.56,0,0,0,10.15-9.7,71.07,71.07,0,0,0,8-11.72,69.16,69.16,0,0,0,5.52-13,51.26,51.26,0,0,0,2.35-13.75,37.14,37.14,0,0,0-1.89-13.55,33.9,33.9,0,0,0-6.9-11.7c-.82-.81-1.59-1.66-2.45-2.44s-1.73-1.54-2.67-2.23-1.86-1.4-2.87-2l-1.51-.91-.75-.46-.38-.23-.29-.14a11.9,11.9,0,0,0-2.94-.88c-1.1-.21-2.26-.35-3.44-.46-2.36-.22-4.79-.3-7.23-.35-4.89-.09-9.84,0-14.81-.1a88.46,88.46,0,0,1-15-1.29,20.39,20.39,0,0,1-7.34-2.79,8.12,8.12,0,0,1-2.78-3.17,7.53,7.53,0,0,1-.52-4.14,18.13,18.13,0,0,1,3-7.07,51.5,51.5,0,0,1,4.64-5.86l.46.38a50.6,50.6,0,0,0-4.05,6.12,16.88,16.88,0,0,0-2.35,6.61,5.67,5.67,0,0,0,.57,3.08,6,6,0,0,0,2.22,2.17,18.13,18.13,0,0,0,6.59,2,87.43,87.43,0,0,0,14.52.44c4.9-.16,9.83-.44,14.81-.58,2.5-.06,5-.09,7.57,0a36.93,36.93,0,0,1,3.91.38,16.42,16.42,0,0,1,4.16,1.13l.55.26.42.24.85.48,1.69,1c1.13.64,2.18,1.42,3.27,2.14s2.06,1.61,3.1,2.41,1.92,1.8,2.89,2.7a38.7,38.7,0,0,1,8.37,13.43,43,43,0,0,1,2.55,15.57c-.16,10.54-3.49,20.63-8.39,29.63a73.82,73.82,0,0,1-8.77,12.66,65.42,65.42,0,0,1-11.35,10.58,42,42,0,0,1-14.62,6.09c-2.52.58-5.06,1-7.6,1.3s-5.08.49-7.61.56a130.16,130.16,0,0,1-30-2.73,156.85,156.85,0,0,1-28.72-8.76,87.57,87.57,0,0,1-13.53-6.82,63.11,63.11,0,0,1-11.87-9.58A57.64,57.64,0,0,1,378.8,479.2,63,63,0,0,1,377,464.13a67.23,67.23,0,0,1,1.67-15,61.72,61.72,0,0,1,5.07-14.25,46,46,0,0,1,3.93-6.49c1.42-2.06,3-4,4.59-6a61.73,61.73,0,0,1,11.05-10.21A65.84,65.84,0,0,1,416.47,405c4.59-2,9.3-3.5,13.87-5.28q3.44-1.33,6.72-2.94a47.78,47.78,0,0,0,6.23-3.8,40.42,40.42,0,0,0,9.86-10.68A66.75,66.75,0,0,0,459.48,369Z"/></g></svg>